<svg width="1335" height="1339" viewBox="0 0 1335 1339" fill="none" xmlns="http://www.w3.org/2000/svg">
<line x1="282.924" y1="666.5" x2="1023.62" y2="662.476" stroke="#6347D9" stroke-width="7"/>
<line x1="458.319" y1="986.375" x2="828.672" y2="344.905" stroke="#6347D9" stroke-width="7"/>
<line x1="461.887" y1="352.16" x2="832.24" y2="993.63" stroke="#6347D9" stroke-width="7"/>
<circle cx="912.481" cy="248.48" r="180.436" transform="rotate(30 912.481 248.48)" fill="#B4A6E6"/>
<circle cx="912.481" cy="248.48" r="178.936" transform="rotate(30 912.481 248.48)" stroke="#6347D9" stroke-opacity="0.6" stroke-width="3"/>
<circle cx="374.31" cy="1116.31" r="162.743" transform="rotate(30 374.31 1116.31)" fill="#B4A6E6"/>
<circle cx="374.31" cy="1116.31" r="161.243" transform="rotate(30 374.31 1116.31)" stroke="#6347D9" stroke-opacity="0.6" stroke-width="3"/>
<g filter="url(#filter0_d_858_334)">
<circle cx="906.109" cy="1136.11" r="183.093" transform="rotate(30 906.109 1136.11)" fill="#9481E1"/>
</g>
<circle cx="906.109" cy="1136.11" r="183.093" transform="rotate(30 906.109 1136.11)" fill="#B4A6E6"/>
<circle cx="906.109" cy="1136.11" r="181.593" transform="rotate(30 906.109 1136.11)" stroke="#6347D9" stroke-opacity="0.6" stroke-width="3"/>
<circle cx="1161.88" cy="653.277" r="155.398" transform="rotate(30 1161.88 653.277)" fill="#B4A6E6"/>
<circle cx="1161.88" cy="653.277" r="153.898" transform="rotate(30 1161.88 653.277)" stroke="#6347D9" stroke-opacity="0.6" stroke-width="3"/>
<circle cx="164.084" cy="655.577" r="150.493" transform="rotate(30 164.084 655.577)" fill="#B4A6E6"/>
<circle cx="164.084" cy="655.577" r="148.993" transform="rotate(30 164.084 655.577)" stroke="#6347D9" stroke-opacity="0.6" stroke-width="3"/>
<path d="M846.635 258.155L855.05 232.008H861.137L849.667 264H845.558L846.635 258.155ZM838.856 232.008L847.206 258.155L848.349 264H844.218L832.792 232.008H838.856ZM863.519 252.376V251.871C863.519 250.157 863.768 248.568 864.267 247.103C864.765 245.624 865.482 244.342 866.42 243.258C867.372 242.159 868.529 241.31 869.892 240.709C871.268 240.094 872.821 239.786 874.55 239.786C876.293 239.786 877.846 240.094 879.208 240.709C880.585 241.31 881.749 242.159 882.702 243.258C883.654 244.342 884.379 245.624 884.877 247.103C885.375 248.568 885.624 250.157 885.624 251.871V252.376C885.624 254.09 885.375 255.68 884.877 257.145C884.379 258.609 883.654 259.891 882.702 260.99C881.749 262.074 880.592 262.923 879.23 263.539C877.868 264.139 876.322 264.439 874.594 264.439C872.85 264.439 871.29 264.139 869.913 263.539C868.551 262.923 867.394 262.074 866.442 260.99C865.49 259.891 864.765 258.609 864.267 257.145C863.768 255.68 863.519 254.09 863.519 252.376ZM868.815 251.871V252.376C868.815 253.446 868.925 254.457 869.144 255.409C869.364 256.361 869.708 257.196 870.177 257.914C870.646 258.631 871.246 259.195 871.979 259.605C872.711 260.016 873.583 260.221 874.594 260.221C875.575 260.221 876.425 260.016 877.142 259.605C877.875 259.195 878.475 258.631 878.944 257.914C879.413 257.196 879.757 256.361 879.977 255.409C880.211 254.457 880.329 253.446 880.329 252.376V251.871C880.329 250.816 880.211 249.82 879.977 248.883C879.757 247.931 879.406 247.088 878.922 246.356C878.454 245.624 877.853 245.052 877.121 244.642C876.403 244.217 875.546 244.005 874.55 244.005C873.554 244.005 872.689 244.217 871.957 244.642C871.239 245.052 870.646 245.624 870.177 246.356C869.708 247.088 869.364 247.931 869.144 248.883C868.925 249.82 868.815 250.816 868.815 251.871ZM897.081 230.25V264H891.764V230.25H897.081ZM918.536 258.397V240.226H923.854V264H918.844L918.536 258.397ZM919.283 253.453L921.063 253.409C921.063 255.006 920.887 256.478 920.536 257.826C920.184 259.159 919.642 260.323 918.91 261.319C918.177 262.301 917.24 263.07 916.097 263.626C914.955 264.168 913.585 264.439 911.988 264.439C910.831 264.439 909.769 264.271 908.802 263.934C907.836 263.597 907.001 263.077 906.298 262.374C905.609 261.671 905.074 260.755 904.694 259.627C904.313 258.5 904.122 257.152 904.122 255.584V240.226H909.418V255.628C909.418 256.493 909.52 257.218 909.725 257.804C909.93 258.375 910.209 258.836 910.56 259.188C910.912 259.54 911.322 259.789 911.791 259.935C912.259 260.082 912.758 260.155 913.285 260.155C914.794 260.155 915.98 259.862 916.844 259.276C917.723 258.675 918.346 257.87 918.712 256.859C919.093 255.848 919.283 254.713 919.283 253.453ZM935.926 245.06V264H930.631V240.226H935.619L935.926 245.06ZM935.069 251.234L933.268 251.212C933.268 249.571 933.473 248.055 933.883 246.664C934.293 245.272 934.894 244.063 935.685 243.038C936.476 241.998 937.457 241.2 938.629 240.643C939.816 240.072 941.185 239.786 942.738 239.786C943.822 239.786 944.811 239.947 945.704 240.27C946.612 240.577 947.396 241.068 948.055 241.742C948.729 242.416 949.242 243.28 949.593 244.334C949.96 245.389 950.143 246.664 950.143 248.158V264H944.847V248.619C944.847 247.462 944.671 246.554 944.32 245.895C943.983 245.235 943.492 244.767 942.848 244.488C942.218 244.195 941.463 244.049 940.585 244.049C939.588 244.049 938.739 244.239 938.036 244.62C937.347 245.001 936.783 245.521 936.344 246.18C935.904 246.839 935.582 247.601 935.377 248.465C935.172 249.33 935.069 250.252 935.069 251.234ZM949.813 249.828L947.33 250.377C947.33 248.941 947.528 247.586 947.923 246.312C948.334 245.023 948.927 243.895 949.703 242.928C950.494 241.947 951.468 241.178 952.626 240.621C953.783 240.064 955.108 239.786 956.603 239.786C957.818 239.786 958.902 239.955 959.855 240.292C960.821 240.614 961.642 241.126 962.316 241.83C962.989 242.533 963.502 243.448 963.854 244.576C964.205 245.689 964.381 247.037 964.381 248.619V264H959.064V248.597C959.064 247.396 958.888 246.466 958.536 245.807C958.199 245.147 957.716 244.693 957.086 244.444C956.456 244.181 955.702 244.049 954.823 244.049C954.003 244.049 953.277 244.203 952.648 244.51C952.032 244.803 951.512 245.221 951.088 245.763C950.663 246.29 950.34 246.898 950.121 247.586C949.916 248.275 949.813 249.022 949.813 249.828ZM981.661 264.439C979.903 264.439 978.314 264.154 976.893 263.583C975.487 262.997 974.286 262.184 973.29 261.144C972.308 260.104 971.554 258.88 971.026 257.474C970.499 256.068 970.235 254.552 970.235 252.926V252.047C970.235 250.187 970.506 248.502 971.048 246.993C971.59 245.484 972.345 244.195 973.312 243.126C974.278 242.042 975.421 241.214 976.739 240.643C978.058 240.072 979.486 239.786 981.024 239.786C982.723 239.786 984.21 240.072 985.484 240.643C986.759 241.214 987.813 242.02 988.648 243.06C989.498 244.085 990.128 245.309 990.538 246.729C990.963 248.15 991.175 249.718 991.175 251.432V253.695H972.806V249.894H985.946V249.476C985.917 248.524 985.726 247.63 985.375 246.795C985.038 245.96 984.518 245.287 983.814 244.774C983.111 244.261 982.174 244.005 981.002 244.005C980.123 244.005 979.339 244.195 978.651 244.576C977.977 244.942 977.413 245.477 976.959 246.18C976.505 246.883 976.153 247.733 975.904 248.729C975.67 249.71 975.553 250.816 975.553 252.047V252.926C975.553 253.966 975.692 254.933 975.97 255.826C976.263 256.705 976.688 257.474 977.245 258.133C977.801 258.792 978.475 259.312 979.266 259.693C980.057 260.06 980.958 260.243 981.969 260.243C983.243 260.243 984.378 259.986 985.375 259.474C986.371 258.961 987.235 258.236 987.967 257.298L990.758 260.001C990.245 260.748 989.579 261.466 988.758 262.154C987.938 262.828 986.935 263.377 985.748 263.802C984.576 264.227 983.214 264.439 981.661 264.439Z" fill="white"/>
<path d="M1060.28 637.008H1071.6C1074.03 637.008 1076.1 637.374 1077.82 638.106C1079.53 638.839 1080.84 639.923 1081.75 641.358C1082.67 642.779 1083.14 644.537 1083.14 646.632C1083.14 648.229 1082.84 649.635 1082.26 650.851C1081.67 652.066 1080.84 653.092 1079.77 653.927C1078.7 654.747 1077.43 655.384 1075.95 655.838L1074.28 656.651H1064.11L1064.06 652.279H1071.69C1073.01 652.279 1074.1 652.044 1074.98 651.576C1075.86 651.107 1076.52 650.47 1076.96 649.664C1077.42 648.844 1077.64 647.921 1077.64 646.896C1077.64 645.782 1077.42 644.815 1076.98 643.995C1076.56 643.16 1075.9 642.523 1075.01 642.083C1074.11 641.629 1072.98 641.402 1071.6 641.402H1065.8V669H1060.28V637.008ZM1078.54 669L1071.03 654.63L1076.81 654.608L1084.43 668.714V669H1078.54ZM1099.93 669.439C1098.17 669.439 1096.59 669.154 1095.16 668.583C1093.76 667.997 1092.56 667.184 1091.56 666.144C1090.58 665.104 1089.83 663.88 1089.3 662.474C1088.77 661.068 1088.51 659.552 1088.51 657.926V657.047C1088.51 655.187 1088.78 653.502 1089.32 651.993C1089.86 650.484 1090.62 649.195 1091.58 648.126C1092.55 647.042 1093.69 646.214 1095.01 645.643C1096.33 645.072 1097.76 644.786 1099.3 644.786C1100.99 644.786 1102.48 645.072 1103.76 645.643C1105.03 646.214 1106.08 647.02 1106.92 648.06C1107.77 649.085 1108.4 650.309 1108.81 651.729C1109.23 653.15 1109.45 654.718 1109.45 656.432V658.695H1091.08V654.894H1104.22V654.476C1104.19 653.524 1104 652.63 1103.65 651.795C1103.31 650.96 1102.79 650.287 1102.09 649.774C1101.38 649.261 1100.45 649.005 1099.27 649.005C1098.39 649.005 1097.61 649.195 1096.92 649.576C1096.25 649.942 1095.68 650.477 1095.23 651.18C1094.78 651.883 1094.42 652.733 1094.18 653.729C1093.94 654.71 1093.82 655.816 1093.82 657.047V657.926C1093.82 658.966 1093.96 659.933 1094.24 660.826C1094.53 661.705 1094.96 662.474 1095.52 663.133C1096.07 663.792 1096.75 664.312 1097.54 664.693C1098.33 665.06 1099.23 665.243 1100.24 665.243C1101.51 665.243 1102.65 664.986 1103.65 664.474C1104.64 663.961 1105.51 663.236 1106.24 662.298L1109.03 665.001C1108.52 665.748 1107.85 666.466 1107.03 667.154C1106.21 667.828 1105.21 668.377 1104.02 668.802C1102.85 669.227 1101.49 669.439 1099.93 669.439ZM1120.6 635.25V669H1115.28V635.25H1120.6ZM1133.42 645.226V669H1128.1V645.226H1133.42ZM1127.75 638.985C1127.75 638.18 1128.01 637.513 1128.54 636.986C1129.08 636.444 1129.83 636.173 1130.78 636.173C1131.72 636.173 1132.46 636.444 1133 636.986C1133.54 637.513 1133.81 638.18 1133.81 638.985C1133.81 639.776 1133.54 640.436 1133 640.963C1132.46 641.49 1131.72 641.754 1130.78 641.754C1129.83 641.754 1129.08 641.49 1128.54 640.963C1128.01 640.436 1127.75 639.776 1127.75 638.985ZM1153.97 664.232V652.894C1153.97 652.044 1153.82 651.312 1153.51 650.697C1153.2 650.082 1152.73 649.605 1152.1 649.269C1151.49 648.932 1150.71 648.763 1149.77 648.763C1148.91 648.763 1148.16 648.91 1147.53 649.203C1146.9 649.496 1146.41 649.891 1146.06 650.389C1145.71 650.887 1145.53 651.451 1145.53 652.081H1140.26C1140.26 651.144 1140.49 650.235 1140.94 649.356C1141.39 648.478 1142.05 647.694 1142.92 647.005C1143.78 646.317 1144.82 645.775 1146.02 645.379C1147.22 644.984 1148.57 644.786 1150.06 644.786C1151.85 644.786 1153.43 645.086 1154.81 645.687C1156.2 646.288 1157.29 647.196 1158.08 648.412C1158.88 649.613 1159.29 651.122 1159.29 652.938V663.507C1159.29 664.591 1159.36 665.565 1159.51 666.429C1159.67 667.279 1159.9 668.019 1160.19 668.648V669H1154.76C1154.51 668.429 1154.31 667.704 1154.17 666.825C1154.04 665.931 1153.97 665.067 1153.97 664.232ZM1154.74 654.542L1154.78 657.816H1150.98C1150 657.816 1149.14 657.911 1148.39 658.102C1147.64 658.277 1147.02 658.541 1146.52 658.893C1146.02 659.244 1145.65 659.669 1145.4 660.167C1145.15 660.665 1145.03 661.229 1145.03 661.859C1145.03 662.489 1145.17 663.067 1145.47 663.595C1145.76 664.107 1146.18 664.51 1146.74 664.803C1147.31 665.096 1148 665.243 1148.81 665.243C1149.89 665.243 1150.84 665.023 1151.64 664.583C1152.46 664.129 1153.11 663.58 1153.57 662.936C1154.04 662.276 1154.29 661.654 1154.32 661.068L1156.04 663.419C1155.86 664.02 1155.56 664.664 1155.13 665.353C1154.71 666.041 1154.15 666.7 1153.46 667.33C1152.79 667.945 1151.98 668.451 1151.03 668.846C1150.09 669.242 1149 669.439 1147.77 669.439C1146.22 669.439 1144.84 669.132 1143.62 668.517C1142.41 667.887 1141.45 667.044 1140.76 665.99C1140.08 664.92 1139.73 663.712 1139.73 662.364C1139.73 661.104 1139.97 659.991 1140.44 659.024C1140.92 658.043 1141.62 657.223 1142.54 656.563C1143.48 655.904 1144.62 655.406 1145.97 655.069C1147.32 654.718 1148.86 654.542 1150.59 654.542H1154.74ZM1166.2 635.25H1171.49V663.924L1170.99 669H1166.2V635.25ZM1187 656.893V657.354C1187 659.112 1186.81 660.731 1186.41 662.21C1186.03 663.675 1185.44 664.95 1184.65 666.034C1183.88 667.118 1182.91 667.96 1181.75 668.561C1180.61 669.146 1179.29 669.439 1177.78 669.439C1176.3 669.439 1175.01 669.161 1173.91 668.604C1172.81 668.048 1171.89 667.257 1171.14 666.231C1170.41 665.206 1169.81 663.983 1169.36 662.562C1168.91 661.141 1168.58 659.574 1168.39 657.86V656.388C1168.58 654.659 1168.91 653.092 1169.36 651.686C1169.81 650.265 1170.41 649.042 1171.14 648.016C1171.89 646.976 1172.8 646.178 1173.89 645.621C1174.99 645.064 1176.27 644.786 1177.73 644.786C1179.26 644.786 1180.6 645.079 1181.75 645.665C1182.93 646.251 1183.9 647.086 1184.68 648.17C1185.45 649.239 1186.03 650.514 1186.41 651.993C1186.81 653.473 1187 655.106 1187 656.893ZM1181.71 657.354V656.893C1181.71 655.824 1181.62 654.82 1181.45 653.883C1181.27 652.931 1180.98 652.096 1180.57 651.378C1180.17 650.66 1179.63 650.096 1178.94 649.686C1178.27 649.261 1177.42 649.049 1176.41 649.049C1175.48 649.049 1174.67 649.21 1174 649.532C1173.32 649.854 1172.76 650.294 1172.31 650.851C1171.85 651.407 1171.49 652.052 1171.23 652.784C1170.98 653.517 1170.81 654.308 1170.72 655.157V659.134C1170.85 660.233 1171.13 661.244 1171.56 662.167C1172 663.075 1172.61 663.807 1173.4 664.364C1174.19 664.906 1175.21 665.177 1176.46 665.177C1177.44 665.177 1178.27 664.979 1178.94 664.583C1179.61 664.188 1180.15 663.639 1180.54 662.936C1180.96 662.218 1181.25 661.383 1181.42 660.431C1181.61 659.479 1181.71 658.453 1181.71 657.354ZM1198.51 645.226V669H1193.19V645.226H1198.51ZM1192.84 638.985C1192.84 638.18 1193.1 637.513 1193.63 636.986C1194.17 636.444 1194.92 636.173 1195.87 636.173C1196.81 636.173 1197.55 636.444 1198.09 636.986C1198.63 637.513 1198.9 638.18 1198.9 638.985C1198.9 639.776 1198.63 640.436 1198.09 640.963C1197.55 641.49 1196.81 641.754 1195.87 641.754C1194.92 641.754 1194.17 641.49 1193.63 640.963C1193.1 640.436 1192.84 639.776 1192.84 638.985ZM1211.33 635.25V669H1206.01V635.25H1211.33ZM1224.15 645.226V669H1218.83V645.226H1224.15ZM1218.48 638.985C1218.48 638.18 1218.74 637.513 1219.27 636.986C1219.81 636.444 1220.56 636.173 1221.51 636.173C1222.45 636.173 1223.19 636.444 1223.73 636.986C1224.27 637.513 1224.54 638.18 1224.54 638.985C1224.54 639.776 1224.27 640.436 1223.73 640.963C1223.19 641.49 1222.45 641.754 1221.51 641.754C1220.56 641.754 1219.81 641.49 1219.27 640.963C1218.74 640.436 1218.48 639.776 1218.48 638.985ZM1242.19 645.226V649.093H1228.79V645.226H1242.19ZM1232.66 639.403H1237.95V662.43C1237.95 663.163 1238.06 663.727 1238.26 664.122C1238.48 664.503 1238.78 664.759 1239.16 664.891C1239.54 665.023 1239.99 665.089 1240.5 665.089C1240.87 665.089 1241.22 665.067 1241.56 665.023C1241.89 664.979 1242.17 664.935 1242.37 664.891L1242.39 668.934C1241.95 669.066 1241.44 669.183 1240.85 669.286C1240.28 669.388 1239.62 669.439 1238.88 669.439C1237.66 669.439 1236.58 669.227 1235.65 668.802C1234.71 668.363 1233.98 667.652 1233.45 666.671C1232.92 665.689 1232.66 664.386 1232.66 662.76V639.403ZM1254.53 666.407L1260.99 645.226H1266.66L1257.12 672.625C1256.9 673.211 1256.62 673.849 1256.27 674.537C1255.92 675.226 1255.45 675.877 1254.88 676.493C1254.33 677.123 1253.63 677.628 1252.8 678.009C1251.96 678.404 1250.95 678.602 1249.76 678.602C1249.29 678.602 1248.84 678.558 1248.4 678.47C1247.98 678.397 1247.57 678.316 1247.19 678.229L1247.17 674.186C1247.32 674.2 1247.49 674.215 1247.7 674.229C1247.92 674.244 1248.09 674.251 1248.23 674.251C1249.1 674.251 1249.84 674.142 1250.42 673.922C1251.01 673.717 1251.48 673.38 1251.85 672.911C1252.23 672.442 1252.55 671.812 1252.82 671.021L1254.53 666.407ZM1250.88 645.226L1256.53 663.023L1257.48 668.604L1253.81 669.549L1245.17 645.226H1250.88Z" fill="white"/>
<path d="M791.933 1103.01V1135H786.417V1103.01H791.933ZM804.984 1117V1121.38H790.526V1117H804.984ZM806.808 1103.01V1107.4H790.526V1103.01H806.808ZM816.771 1115.75V1135H811.476V1111.23H816.53L816.771 1115.75ZM824.044 1111.07L824 1115.99C823.678 1115.94 823.327 1115.89 822.946 1115.86C822.579 1115.83 822.213 1115.82 821.847 1115.82C820.939 1115.82 820.141 1115.95 819.452 1116.21C818.764 1116.46 818.185 1116.83 817.716 1117.31C817.262 1117.78 816.911 1118.35 816.662 1119.03C816.413 1119.7 816.266 1120.45 816.222 1121.29L815.014 1121.38C815.014 1119.88 815.16 1118.5 815.453 1117.22C815.746 1115.95 816.185 1114.83 816.771 1113.86C817.372 1112.9 818.119 1112.14 819.013 1111.6C819.921 1111.06 820.968 1110.79 822.155 1110.79C822.477 1110.79 822.821 1110.82 823.187 1110.87C823.568 1110.93 823.854 1111 824.044 1111.07ZM841.325 1130.23V1118.89C841.325 1118.04 841.171 1117.31 840.863 1116.7C840.555 1116.08 840.087 1115.61 839.457 1115.27C838.842 1114.93 838.065 1114.76 837.128 1114.76C836.263 1114.76 835.516 1114.91 834.887 1115.2C834.257 1115.5 833.766 1115.89 833.414 1116.39C833.063 1116.89 832.887 1117.45 832.887 1118.08H827.614C827.614 1117.14 827.841 1116.24 828.295 1115.36C828.749 1114.48 829.408 1113.69 830.272 1113.01C831.137 1112.32 832.169 1111.77 833.37 1111.38C834.572 1110.98 835.919 1110.79 837.413 1110.79C839.2 1110.79 840.783 1111.09 842.159 1111.69C843.551 1112.29 844.642 1113.2 845.433 1114.41C846.239 1115.61 846.642 1117.12 846.642 1118.94V1129.51C846.642 1130.59 846.715 1131.56 846.862 1132.43C847.023 1133.28 847.25 1134.02 847.543 1134.65V1135H842.116C841.867 1134.43 841.669 1133.7 841.522 1132.82C841.39 1131.93 841.325 1131.07 841.325 1130.23ZM842.094 1120.54L842.138 1123.82H838.336C837.355 1123.82 836.491 1123.91 835.743 1124.1C834.996 1124.28 834.374 1124.54 833.876 1124.89C833.378 1125.24 833.004 1125.67 832.755 1126.17C832.506 1126.67 832.382 1127.23 832.382 1127.86C832.382 1128.49 832.528 1129.07 832.821 1129.59C833.114 1130.11 833.539 1130.51 834.096 1130.8C834.667 1131.1 835.355 1131.24 836.161 1131.24C837.245 1131.24 838.19 1131.02 838.995 1130.58C839.816 1130.13 840.46 1129.58 840.929 1128.94C841.398 1128.28 841.647 1127.65 841.676 1127.07L843.39 1129.42C843.214 1130.02 842.914 1130.66 842.489 1131.35C842.064 1132.04 841.508 1132.7 840.819 1133.33C840.145 1133.95 839.332 1134.45 838.38 1134.85C837.443 1135.24 836.359 1135.44 835.128 1135.44C833.575 1135.44 832.191 1135.13 830.975 1134.52C829.76 1133.89 828.807 1133.04 828.119 1131.99C827.43 1130.92 827.086 1129.71 827.086 1128.36C827.086 1127.1 827.321 1125.99 827.789 1125.02C828.273 1124.04 828.976 1123.22 829.899 1122.56C830.836 1121.9 831.979 1121.41 833.326 1121.07C834.674 1120.72 836.212 1120.54 837.941 1120.54H842.094ZM868.756 1111.23H873.568V1134.34C873.568 1136.48 873.114 1138.3 872.206 1139.79C871.298 1141.28 870.03 1142.42 868.404 1143.2C866.779 1143.99 864.896 1144.38 862.758 1144.38C861.849 1144.38 860.839 1144.25 859.725 1143.99C858.627 1143.72 857.557 1143.3 856.517 1142.71C855.492 1142.14 854.635 1141.39 853.946 1140.45L856.429 1137.33C857.279 1138.34 858.217 1139.08 859.242 1139.55C860.267 1140.02 861.344 1140.25 862.472 1140.25C863.688 1140.25 864.72 1140.02 865.57 1139.57C866.434 1139.13 867.101 1138.48 867.57 1137.61C868.038 1136.75 868.273 1135.7 868.273 1134.45V1116.61L868.756 1111.23ZM852.606 1123.38V1122.92C852.606 1121.11 852.826 1119.47 853.265 1117.99C853.705 1116.5 854.335 1115.22 855.155 1114.15C855.975 1113.06 856.971 1112.24 858.143 1111.67C859.315 1111.08 860.641 1110.79 862.12 1110.79C863.658 1110.79 864.969 1111.06 866.053 1111.62C867.152 1112.18 868.068 1112.98 868.8 1114.02C869.532 1115.04 870.104 1116.27 870.514 1117.71C870.939 1119.13 871.254 1120.71 871.459 1122.45V1123.93C871.268 1125.62 870.946 1127.18 870.492 1128.58C870.038 1129.99 869.437 1131.21 868.69 1132.23C867.943 1133.26 867.02 1134.05 865.922 1134.6C864.838 1135.16 863.556 1135.44 862.076 1135.44C860.626 1135.44 859.315 1135.14 858.143 1134.54C856.986 1133.94 855.99 1133.1 855.155 1132.01C854.335 1130.93 853.705 1129.65 853.265 1128.19C852.826 1126.71 852.606 1125.1 852.606 1123.38ZM857.902 1122.92V1123.38C857.902 1124.46 858.004 1125.47 858.209 1126.41C858.429 1127.35 858.758 1128.17 859.198 1128.89C859.652 1129.59 860.223 1130.15 860.912 1130.56C861.615 1130.96 862.443 1131.15 863.395 1131.15C864.64 1131.15 865.658 1130.89 866.449 1130.36C867.255 1129.84 867.87 1129.13 868.295 1128.23C868.734 1127.32 869.042 1126.31 869.217 1125.2V1121.22C869.13 1120.36 868.946 1119.55 868.668 1118.81C868.404 1118.06 868.046 1117.41 867.592 1116.85C867.137 1116.28 866.566 1115.84 865.878 1115.53C865.189 1115.21 864.376 1115.05 863.439 1115.05C862.487 1115.05 861.659 1115.25 860.956 1115.66C860.253 1116.07 859.674 1116.64 859.22 1117.36C858.78 1118.07 858.451 1118.91 858.231 1119.86C858.011 1120.81 857.902 1121.83 857.902 1122.92ZM885.707 1116.06V1135H880.411V1111.23H885.399L885.707 1116.06ZM884.85 1122.23L883.048 1122.21C883.048 1120.57 883.253 1119.06 883.663 1117.66C884.073 1116.27 884.674 1115.06 885.465 1114.04C886.256 1113 887.237 1112.2 888.409 1111.64C889.596 1111.07 890.965 1110.79 892.518 1110.79C893.602 1110.79 894.591 1110.95 895.484 1111.27C896.393 1111.58 897.176 1112.07 897.836 1112.74C898.509 1113.42 899.022 1114.28 899.374 1115.33C899.74 1116.39 899.923 1117.66 899.923 1119.16V1135H894.628V1119.62C894.628 1118.46 894.452 1117.55 894.1 1116.89C893.763 1116.24 893.273 1115.77 892.628 1115.49C891.998 1115.2 891.244 1115.05 890.365 1115.05C889.369 1115.05 888.519 1115.24 887.816 1115.62C887.128 1116 886.564 1116.52 886.124 1117.18C885.685 1117.84 885.362 1118.6 885.157 1119.47C884.952 1120.33 884.85 1121.25 884.85 1122.23ZM899.593 1120.83L897.11 1121.38C897.11 1119.94 897.308 1118.59 897.704 1117.31C898.114 1116.02 898.707 1114.9 899.483 1113.93C900.275 1112.95 901.249 1112.18 902.406 1111.62C903.563 1111.06 904.889 1110.79 906.383 1110.79C907.599 1110.79 908.683 1110.95 909.635 1111.29C910.602 1111.61 911.422 1112.13 912.096 1112.83C912.77 1113.53 913.282 1114.45 913.634 1115.58C913.985 1116.69 914.161 1118.04 914.161 1119.62V1135H908.844V1119.6C908.844 1118.4 908.668 1117.47 908.317 1116.81C907.98 1116.15 907.496 1115.69 906.866 1115.44C906.236 1115.18 905.482 1115.05 904.603 1115.05C903.783 1115.05 903.058 1115.2 902.428 1115.51C901.813 1115.8 901.293 1116.22 900.868 1116.76C900.443 1117.29 900.121 1117.9 899.901 1118.59C899.696 1119.27 899.593 1120.02 899.593 1120.83ZM931.441 1135.44C929.684 1135.44 928.094 1135.15 926.673 1134.58C925.267 1134 924.066 1133.18 923.07 1132.14C922.088 1131.1 921.334 1129.88 920.807 1128.47C920.279 1127.07 920.016 1125.55 920.016 1123.93V1123.05C920.016 1121.19 920.287 1119.5 920.829 1117.99C921.371 1116.48 922.125 1115.2 923.092 1114.13C924.059 1113.04 925.201 1112.21 926.52 1111.64C927.838 1111.07 929.266 1110.79 930.804 1110.79C932.503 1110.79 933.99 1111.07 935.265 1111.64C936.539 1112.21 937.594 1113.02 938.429 1114.06C939.278 1115.09 939.908 1116.31 940.318 1117.73C940.743 1119.15 940.956 1120.72 940.956 1122.43V1124.69H922.586V1120.89H935.726V1120.48C935.697 1119.52 935.506 1118.63 935.155 1117.8C934.818 1116.96 934.298 1116.29 933.595 1115.77C932.892 1115.26 931.954 1115 930.782 1115C929.903 1115 929.12 1115.2 928.431 1115.58C927.757 1115.94 927.193 1116.48 926.739 1117.18C926.285 1117.88 925.934 1118.73 925.685 1119.73C925.45 1120.71 925.333 1121.82 925.333 1123.05V1123.93C925.333 1124.97 925.472 1125.93 925.75 1126.83C926.043 1127.71 926.468 1128.47 927.025 1129.13C927.582 1129.79 928.255 1130.31 929.046 1130.69C929.837 1131.06 930.738 1131.24 931.749 1131.24C933.023 1131.24 934.159 1130.99 935.155 1130.47C936.151 1129.96 937.015 1129.24 937.748 1128.3L940.538 1131C940.025 1131.75 939.359 1132.47 938.539 1133.15C937.718 1133.83 936.715 1134.38 935.528 1134.8C934.356 1135.23 932.994 1135.44 931.441 1135.44ZM951.688 1116.3V1135H946.392V1111.23H951.38L951.688 1116.3ZM950.743 1122.23L949.029 1122.21C949.044 1120.53 949.278 1118.98 949.732 1117.58C950.201 1116.17 950.846 1114.96 951.666 1113.95C952.501 1112.94 953.497 1112.16 954.654 1111.62C955.811 1111.06 957.1 1110.79 958.521 1110.79C959.664 1110.79 960.697 1110.95 961.62 1111.27C962.557 1111.58 963.355 1112.08 964.015 1112.79C964.688 1113.49 965.201 1114.4 965.553 1115.53C965.904 1116.65 966.08 1118.02 966.08 1119.64V1135H960.763V1119.62C960.763 1118.48 960.594 1117.58 960.257 1116.92C959.935 1116.24 959.459 1115.77 958.829 1115.49C958.214 1115.2 957.445 1115.05 956.522 1115.05C955.614 1115.05 954.801 1115.24 954.083 1115.62C953.365 1116 952.757 1116.52 952.259 1117.18C951.776 1117.84 951.402 1118.6 951.139 1119.47C950.875 1120.33 950.743 1121.25 950.743 1122.23ZM983.734 1111.23V1115.09H970.33V1111.23H983.734ZM974.198 1105.4H979.493V1128.43C979.493 1129.16 979.596 1129.73 979.801 1130.12C980.02 1130.5 980.321 1130.76 980.701 1130.89C981.082 1131.02 981.529 1131.09 982.042 1131.09C982.408 1131.09 982.76 1131.07 983.096 1131.02C983.433 1130.98 983.704 1130.94 983.909 1130.89L983.931 1134.93C983.492 1135.07 982.979 1135.18 982.393 1135.29C981.822 1135.39 981.163 1135.44 980.416 1135.44C979.2 1135.44 978.123 1135.23 977.186 1134.8C976.248 1134.36 975.516 1133.65 974.989 1132.67C974.461 1131.69 974.198 1130.39 974.198 1128.76V1105.4ZM999.652 1135.44C997.894 1135.44 996.304 1135.15 994.883 1134.58C993.477 1134 992.276 1133.18 991.28 1132.14C990.299 1131.1 989.544 1129.88 989.017 1128.47C988.489 1127.07 988.226 1125.55 988.226 1123.93V1123.05C988.226 1121.19 988.497 1119.5 989.039 1117.99C989.581 1116.48 990.335 1115.2 991.302 1114.13C992.269 1113.04 993.411 1112.21 994.73 1111.64C996.048 1111.07 997.476 1110.79 999.014 1110.79C1000.71 1110.79 1002.2 1111.07 1003.47 1111.64C1004.75 1112.21 1005.8 1113.02 1006.64 1114.06C1007.49 1115.09 1008.12 1116.31 1008.53 1117.73C1008.95 1119.15 1009.17 1120.72 1009.17 1122.43V1124.69H990.797V1120.89H1003.94V1120.48C1003.91 1119.52 1003.72 1118.63 1003.36 1117.8C1003.03 1116.96 1002.51 1116.29 1001.8 1115.77C1001.1 1115.26 1000.16 1115 998.992 1115C998.113 1115 997.33 1115.2 996.641 1115.58C995.967 1115.94 995.404 1116.48 994.949 1117.18C994.495 1117.88 994.144 1118.73 993.895 1119.73C993.66 1120.71 993.543 1121.82 993.543 1123.05V1123.93C993.543 1124.97 993.682 1125.93 993.961 1126.83C994.254 1127.71 994.678 1128.47 995.235 1129.13C995.792 1129.79 996.466 1130.31 997.257 1130.69C998.048 1131.06 998.948 1131.24 999.959 1131.24C1001.23 1131.24 1002.37 1130.99 1003.36 1130.47C1004.36 1129.96 1005.23 1129.24 1005.96 1128.3L1008.75 1131C1008.24 1131.75 1007.57 1132.47 1006.75 1133.15C1005.93 1133.83 1004.93 1134.38 1003.74 1134.8C1002.57 1135.23 1001.2 1135.44 999.652 1135.44ZM1029.15 1130.08V1101.25H1034.47V1135H1029.65L1029.15 1130.08ZM1013.68 1123.38V1122.92C1013.68 1121.11 1013.89 1119.47 1014.32 1117.99C1014.74 1116.5 1015.36 1115.22 1016.16 1114.15C1016.97 1113.06 1017.95 1112.24 1019.11 1111.67C1020.26 1111.08 1021.57 1110.79 1023.02 1110.79C1024.45 1110.79 1025.71 1111.06 1026.8 1111.62C1027.88 1112.18 1028.8 1112.98 1029.57 1114.02C1030.33 1115.04 1030.94 1116.27 1031.39 1117.71C1031.84 1119.13 1032.17 1120.71 1032.36 1122.45V1123.93C1032.17 1125.62 1031.84 1127.18 1031.39 1128.58C1030.94 1129.99 1030.33 1131.21 1029.57 1132.23C1028.8 1133.26 1027.87 1134.05 1026.78 1134.6C1025.69 1135.16 1024.42 1135.44 1022.97 1135.44C1021.54 1135.44 1020.24 1135.14 1019.09 1134.54C1017.94 1133.94 1016.97 1133.1 1016.16 1132.01C1015.36 1130.93 1014.74 1129.65 1014.32 1128.19C1013.89 1126.71 1013.68 1125.1 1013.68 1123.38ZM1018.98 1122.92V1123.38C1018.98 1124.46 1019.07 1125.47 1019.26 1126.41C1019.47 1127.35 1019.78 1128.17 1020.21 1128.89C1020.63 1129.59 1021.18 1130.15 1021.85 1130.56C1022.54 1130.96 1023.36 1131.15 1024.31 1131.15C1025.52 1131.15 1026.5 1130.89 1027.28 1130.36C1028.06 1129.84 1028.67 1129.13 1029.1 1128.23C1029.56 1127.32 1029.87 1126.31 1030.03 1125.2V1121.22C1029.94 1120.36 1029.76 1119.55 1029.48 1118.81C1029.21 1118.06 1028.86 1117.41 1028.4 1116.85C1027.95 1116.28 1027.38 1115.84 1026.71 1115.53C1026.05 1115.21 1025.27 1115.05 1024.36 1115.05C1023.39 1115.05 1022.57 1115.25 1021.9 1115.66C1021.22 1116.07 1020.67 1116.64 1020.23 1117.36C1019.8 1118.07 1019.49 1118.91 1019.28 1119.86C1019.08 1120.81 1018.98 1121.83 1018.98 1122.92ZM843.06 1182.16L851.476 1156.01H857.562L846.093 1188H841.984L843.06 1182.16ZM835.282 1156.01L843.632 1182.16L844.774 1188H840.643L829.218 1156.01H835.282ZM871.481 1188.44C869.723 1188.44 868.133 1188.15 866.713 1187.58C865.306 1187 864.105 1186.18 863.109 1185.14C862.128 1184.1 861.373 1182.88 860.846 1181.47C860.319 1180.07 860.055 1178.55 860.055 1176.93V1176.05C860.055 1174.19 860.326 1172.5 860.868 1170.99C861.41 1169.48 862.164 1168.2 863.131 1167.13C864.098 1166.04 865.24 1165.21 866.559 1164.64C867.877 1164.07 869.305 1163.79 870.843 1163.79C872.543 1163.79 874.029 1164.07 875.304 1164.64C876.578 1165.21 877.633 1166.02 878.468 1167.06C879.318 1168.09 879.947 1169.31 880.358 1170.73C880.782 1172.15 880.995 1173.72 880.995 1175.43V1177.69H862.626V1173.89H875.765V1173.48C875.736 1172.52 875.546 1171.63 875.194 1170.8C874.857 1169.96 874.337 1169.29 873.634 1168.77C872.931 1168.26 871.993 1168 870.821 1168C869.943 1168 869.159 1168.2 868.47 1168.58C867.797 1168.94 867.233 1169.48 866.779 1170.18C866.324 1170.88 865.973 1171.73 865.724 1172.73C865.489 1173.71 865.372 1174.82 865.372 1176.05V1176.93C865.372 1177.97 865.511 1178.93 865.79 1179.83C866.083 1180.71 866.508 1181.47 867.064 1182.13C867.621 1182.79 868.295 1183.31 869.086 1183.69C869.877 1184.06 870.778 1184.24 871.788 1184.24C873.063 1184.24 874.198 1183.99 875.194 1183.47C876.19 1182.96 877.054 1182.24 877.787 1181.3L880.577 1184C880.065 1184.75 879.398 1185.47 878.578 1186.15C877.758 1186.83 876.754 1187.38 875.568 1187.8C874.396 1188.23 873.033 1188.44 871.481 1188.44ZM891.727 1169.3V1188H886.432V1164.23H891.42L891.727 1169.3ZM890.782 1175.23L889.068 1175.21C889.083 1173.53 889.317 1171.98 889.772 1170.58C890.24 1169.17 890.885 1167.96 891.705 1166.95C892.54 1165.94 893.536 1165.16 894.693 1164.62C895.851 1164.06 897.14 1163.79 898.561 1163.79C899.703 1163.79 900.736 1163.95 901.659 1164.27C902.596 1164.58 903.395 1165.08 904.054 1165.79C904.728 1166.49 905.24 1167.4 905.592 1168.53C905.943 1169.65 906.119 1171.02 906.119 1172.64V1188H900.802V1172.62C900.802 1171.48 900.633 1170.58 900.296 1169.92C899.974 1169.24 899.498 1168.77 898.868 1168.49C898.253 1168.2 897.484 1168.05 896.561 1168.05C895.653 1168.05 894.84 1168.24 894.122 1168.62C893.404 1169 892.796 1169.52 892.298 1170.18C891.815 1170.84 891.441 1171.6 891.178 1172.47C890.914 1173.33 890.782 1174.25 890.782 1175.23ZM927.376 1183.08V1154.25H932.694V1188H927.882L927.376 1183.08ZM911.908 1176.38V1175.92C911.908 1174.11 912.12 1172.47 912.545 1170.99C912.97 1169.5 913.585 1168.22 914.391 1167.15C915.196 1166.06 916.178 1165.24 917.335 1164.67C918.492 1164.08 919.796 1163.79 921.246 1163.79C922.682 1163.79 923.941 1164.06 925.025 1164.62C926.109 1165.18 927.032 1165.98 927.794 1167.02C928.556 1168.04 929.164 1169.27 929.618 1170.71C930.072 1172.13 930.394 1173.71 930.584 1175.45V1176.93C930.394 1178.62 930.072 1180.18 929.618 1181.58C929.164 1182.99 928.556 1184.21 927.794 1185.23C927.032 1186.26 926.102 1187.05 925.003 1187.6C923.919 1188.16 922.652 1188.44 921.202 1188.44C919.767 1188.44 918.47 1188.14 917.313 1187.54C916.17 1186.94 915.196 1186.1 914.391 1185.01C913.585 1183.93 912.97 1182.65 912.545 1181.19C912.12 1179.71 911.908 1178.1 911.908 1176.38ZM917.203 1175.92V1176.38C917.203 1177.46 917.298 1178.47 917.489 1179.41C917.694 1180.35 918.009 1181.17 918.434 1181.89C918.858 1182.59 919.408 1183.15 920.082 1183.56C920.77 1183.96 921.59 1184.15 922.542 1184.15C923.744 1184.15 924.732 1183.89 925.509 1183.36C926.285 1182.84 926.893 1182.13 927.333 1181.23C927.787 1180.32 928.094 1179.31 928.255 1178.2V1174.22C928.167 1173.36 927.984 1172.55 927.706 1171.81C927.442 1171.06 927.083 1170.41 926.629 1169.85C926.175 1169.28 925.611 1168.84 924.938 1168.53C924.278 1168.21 923.495 1168.05 922.586 1168.05C921.62 1168.05 920.799 1168.25 920.125 1168.66C919.452 1169.07 918.895 1169.64 918.456 1170.36C918.031 1171.07 917.716 1171.91 917.511 1172.86C917.306 1173.81 917.203 1174.83 917.203 1175.92ZM938.57 1176.38V1175.87C938.57 1174.16 938.819 1172.57 939.317 1171.1C939.815 1169.62 940.533 1168.34 941.471 1167.26C942.423 1166.16 943.58 1165.31 944.942 1164.71C946.319 1164.09 947.872 1163.79 949.6 1163.79C951.344 1163.79 952.896 1164.09 954.259 1164.71C955.636 1165.31 956.8 1166.16 957.752 1167.26C958.704 1168.34 959.43 1169.62 959.928 1171.1C960.426 1172.57 960.675 1174.16 960.675 1175.87V1176.38C960.675 1178.09 960.426 1179.68 959.928 1181.14C959.43 1182.61 958.704 1183.89 957.752 1184.99C956.8 1186.07 955.643 1186.92 954.281 1187.54C952.918 1188.14 951.373 1188.44 949.644 1188.44C947.901 1188.44 946.341 1188.14 944.964 1187.54C943.602 1186.92 942.445 1186.07 941.493 1184.99C940.54 1183.89 939.815 1182.61 939.317 1181.14C938.819 1179.68 938.57 1178.09 938.57 1176.38ZM943.866 1175.87V1176.38C943.866 1177.45 943.975 1178.46 944.195 1179.41C944.415 1180.36 944.759 1181.2 945.228 1181.91C945.697 1182.63 946.297 1183.2 947.03 1183.61C947.762 1184.02 948.634 1184.22 949.644 1184.22C950.626 1184.22 951.475 1184.02 952.193 1183.61C952.926 1183.2 953.526 1182.63 953.995 1181.91C954.464 1181.2 954.808 1180.36 955.028 1179.41C955.262 1178.46 955.379 1177.45 955.379 1176.38V1175.87C955.379 1174.82 955.262 1173.82 955.028 1172.88C954.808 1171.93 954.456 1171.09 953.973 1170.36C953.504 1169.62 952.904 1169.05 952.171 1168.64C951.454 1168.22 950.597 1168 949.6 1168C948.604 1168 947.74 1168.22 947.008 1168.64C946.29 1169.05 945.697 1169.62 945.228 1170.36C944.759 1171.09 944.415 1171.93 944.195 1172.88C943.975 1173.82 943.866 1174.82 943.866 1175.87ZM971.781 1168.75V1188H966.485V1164.23H971.539L971.781 1168.75ZM979.054 1164.07L979.01 1168.99C978.687 1168.94 978.336 1168.89 977.955 1168.86C977.589 1168.83 977.222 1168.82 976.856 1168.82C975.948 1168.82 975.15 1168.95 974.461 1169.21C973.773 1169.46 973.194 1169.83 972.725 1170.31C972.271 1170.78 971.92 1171.35 971.671 1172.03C971.422 1172.7 971.275 1173.45 971.231 1174.29L970.023 1174.38C970.023 1172.88 970.169 1171.5 970.462 1170.22C970.755 1168.95 971.195 1167.83 971.781 1166.86C972.381 1165.9 973.128 1165.14 974.022 1164.6C974.93 1164.06 975.977 1163.79 977.164 1163.79C977.486 1163.79 977.83 1163.82 978.197 1163.87C978.577 1163.93 978.863 1164 979.054 1164.07ZM997.059 1181.56C997.059 1181.03 996.927 1180.56 996.663 1180.13C996.4 1179.69 995.894 1179.3 995.147 1178.95C994.415 1178.6 993.331 1178.27 991.895 1177.98C990.635 1177.7 989.478 1177.37 988.424 1176.99C987.383 1176.6 986.49 1176.12 985.743 1175.56C984.996 1175.01 984.417 1174.35 984.007 1173.59C983.597 1172.82 983.392 1171.95 983.392 1170.95C983.392 1169.98 983.604 1169.07 984.029 1168.2C984.454 1167.34 985.062 1166.58 985.853 1165.92C986.644 1165.26 987.603 1164.74 988.731 1164.36C989.874 1163.98 991.148 1163.79 992.554 1163.79C994.547 1163.79 996.253 1164.12 997.674 1164.8C999.11 1165.46 1000.21 1166.36 1000.97 1167.5C1001.73 1168.63 1002.11 1169.9 1002.11 1171.32H996.817C996.817 1170.69 996.656 1170.11 996.334 1169.56C996.026 1169.01 995.557 1168.56 994.927 1168.22C994.298 1167.87 993.507 1167.7 992.554 1167.7C991.646 1167.7 990.892 1167.84 990.291 1168.14C989.705 1168.42 989.266 1168.78 988.973 1169.24C988.695 1169.69 988.555 1170.19 988.555 1170.73C988.555 1171.12 988.629 1171.48 988.775 1171.81C988.936 1172.11 989.2 1172.4 989.566 1172.66C989.932 1172.91 990.43 1173.15 991.06 1173.37C991.705 1173.59 992.51 1173.8 993.477 1174C995.294 1174.38 996.854 1174.88 998.157 1175.48C999.476 1176.06 1000.49 1176.82 1001.19 1177.76C1001.89 1178.68 1002.24 1179.86 1002.24 1181.28C1002.24 1182.33 1002.02 1183.3 1001.56 1184.18C1001.12 1185.04 1000.48 1185.8 999.63 1186.44C998.78 1187.07 997.762 1187.56 996.575 1187.91C995.404 1188.26 994.085 1188.44 992.62 1188.44C990.467 1188.44 988.643 1188.06 987.149 1187.3C985.655 1186.52 984.52 1185.53 983.743 1184.33C982.982 1183.11 982.601 1181.85 982.601 1180.55H987.72C987.779 1181.53 988.05 1182.32 988.533 1182.9C989.031 1183.47 989.647 1183.89 990.379 1184.15C991.126 1184.4 991.895 1184.53 992.686 1184.53C993.638 1184.53 994.437 1184.4 995.081 1184.15C995.726 1183.89 996.217 1183.54 996.553 1183.1C996.89 1182.65 997.059 1182.13 997.059 1181.56Z" fill="white"/>
<path d="M367.437 1073.01V1105H361.922L347.574 1082.08V1105H342.059V1073.01H347.574L361.966 1095.97V1073.01H367.437ZM373.819 1093.38V1092.87C373.819 1091.16 374.068 1089.57 374.566 1088.1C375.064 1086.62 375.782 1085.34 376.719 1084.26C377.671 1083.16 378.829 1082.31 380.191 1081.71C381.568 1081.09 383.121 1080.79 384.849 1080.79C386.592 1080.79 388.145 1081.09 389.507 1081.71C390.884 1082.31 392.049 1083.16 393.001 1084.26C393.953 1085.34 394.678 1086.62 395.176 1088.1C395.674 1089.57 395.923 1091.16 395.923 1092.87V1093.38C395.923 1095.09 395.674 1096.68 395.176 1098.14C394.678 1099.61 393.953 1100.89 393.001 1101.99C392.049 1103.07 390.892 1103.92 389.529 1104.54C388.167 1105.14 386.622 1105.44 384.893 1105.44C383.15 1105.44 381.59 1105.14 380.213 1104.54C378.851 1103.92 377.693 1103.07 376.741 1101.99C375.789 1100.89 375.064 1099.61 374.566 1098.14C374.068 1096.68 373.819 1095.09 373.819 1093.38ZM379.114 1092.87V1093.38C379.114 1094.45 379.224 1095.46 379.444 1096.41C379.664 1097.36 380.008 1098.2 380.477 1098.91C380.945 1099.63 381.546 1100.2 382.278 1100.61C383.011 1101.02 383.882 1101.22 384.893 1101.22C385.875 1101.22 386.724 1101.02 387.442 1100.61C388.174 1100.2 388.775 1099.63 389.244 1098.91C389.712 1098.2 390.057 1097.36 390.276 1096.41C390.511 1095.46 390.628 1094.45 390.628 1093.38V1092.87C390.628 1091.82 390.511 1090.82 390.276 1089.88C390.057 1088.93 389.705 1088.09 389.222 1087.36C388.753 1086.62 388.152 1086.05 387.42 1085.64C386.702 1085.22 385.845 1085 384.849 1085C383.853 1085 382.989 1085.22 382.256 1085.64C381.539 1086.05 380.945 1086.62 380.477 1087.36C380.008 1088.09 379.664 1088.93 379.444 1089.88C379.224 1090.82 379.114 1091.82 379.114 1092.87ZM271.532 1154.22C272.396 1154.22 273.172 1154.05 273.861 1153.72C274.564 1153.36 275.128 1152.88 275.553 1152.27C275.992 1151.65 276.234 1150.94 276.278 1150.13H281.266C281.236 1151.67 280.782 1153.07 279.903 1154.33C279.024 1155.59 277.86 1156.59 276.41 1157.34C274.959 1158.07 273.355 1158.44 271.598 1158.44C269.781 1158.44 268.199 1158.13 266.852 1157.52C265.504 1156.89 264.383 1156.02 263.49 1154.92C262.596 1153.83 261.922 1152.56 261.468 1151.12C261.029 1149.69 260.809 1148.15 260.809 1146.51V1145.74C260.809 1144.1 261.029 1142.56 261.468 1141.12C261.922 1139.67 262.596 1138.4 263.49 1137.3C264.383 1136.2 265.504 1135.35 266.852 1134.73C268.199 1134.1 269.774 1133.79 271.576 1133.79C273.48 1133.79 275.15 1134.17 276.585 1134.93C278.021 1135.68 279.149 1136.72 279.969 1138.07C280.804 1139.4 281.236 1140.96 281.266 1142.73H276.278C276.234 1141.85 276.014 1141.06 275.619 1140.36C275.238 1139.64 274.696 1139.07 273.993 1138.64C273.304 1138.22 272.477 1138 271.51 1138C270.44 1138 269.554 1138.22 268.851 1138.66C268.148 1139.09 267.599 1139.67 267.203 1140.42C266.808 1141.15 266.522 1141.98 266.346 1142.9C266.185 1143.81 266.104 1144.76 266.104 1145.74V1146.51C266.104 1147.49 266.185 1148.44 266.346 1149.36C266.507 1150.29 266.786 1151.12 267.181 1151.85C267.591 1152.57 268.148 1153.14 268.851 1153.58C269.554 1154.01 270.448 1154.22 271.532 1154.22ZM285.67 1146.38V1145.87C285.67 1144.16 285.919 1142.57 286.417 1141.1C286.915 1139.62 287.633 1138.34 288.57 1137.26C289.522 1136.16 290.68 1135.31 292.042 1134.71C293.419 1134.09 294.972 1133.79 296.7 1133.79C298.443 1133.79 299.996 1134.09 301.358 1134.71C302.735 1135.31 303.9 1136.16 304.852 1137.26C305.804 1138.34 306.529 1139.62 307.027 1141.1C307.525 1142.57 307.774 1144.16 307.774 1145.87V1146.38C307.774 1148.09 307.525 1149.68 307.027 1151.14C306.529 1152.61 305.804 1153.89 304.852 1154.99C303.9 1156.07 302.743 1156.92 301.38 1157.54C300.018 1158.14 298.473 1158.44 296.744 1158.44C295.001 1158.44 293.441 1158.14 292.064 1157.54C290.702 1156.92 289.544 1156.07 288.592 1154.99C287.64 1153.89 286.915 1152.61 286.417 1151.14C285.919 1149.68 285.67 1148.09 285.67 1146.38ZM290.965 1145.87V1146.38C290.965 1147.45 291.075 1148.46 291.295 1149.41C291.515 1150.36 291.859 1151.2 292.328 1151.91C292.796 1152.63 293.397 1153.2 294.129 1153.61C294.862 1154.02 295.733 1154.22 296.744 1154.22C297.725 1154.22 298.575 1154.02 299.293 1153.61C300.025 1153.2 300.626 1152.63 301.095 1151.91C301.563 1151.2 301.908 1150.36 302.127 1149.41C302.362 1148.46 302.479 1147.45 302.479 1146.38V1145.87C302.479 1144.82 302.362 1143.82 302.127 1142.88C301.908 1141.93 301.556 1141.09 301.073 1140.36C300.604 1139.62 300.003 1139.05 299.271 1138.64C298.553 1138.22 297.696 1138 296.7 1138C295.704 1138 294.84 1138.22 294.107 1138.64C293.39 1139.05 292.796 1139.62 292.328 1140.36C291.859 1141.09 291.515 1141.93 291.295 1142.88C291.075 1143.82 290.965 1144.82 290.965 1145.87ZM318.88 1138.75V1158H313.585V1134.23H318.638L318.88 1138.75ZM326.153 1134.07L326.109 1138.99C325.787 1138.94 325.435 1138.89 325.054 1138.86C324.688 1138.83 324.322 1138.82 323.956 1138.82C323.048 1138.82 322.249 1138.95 321.561 1139.21C320.872 1139.46 320.294 1139.83 319.825 1140.31C319.371 1140.78 319.019 1141.35 318.77 1142.03C318.521 1142.7 318.375 1143.45 318.331 1144.29L317.122 1144.38C317.122 1142.88 317.269 1141.5 317.562 1140.22C317.855 1138.95 318.294 1137.83 318.88 1136.86C319.481 1135.9 320.228 1135.14 321.121 1134.6C322.03 1134.06 323.077 1133.79 324.263 1133.79C324.586 1133.79 324.93 1133.82 325.296 1133.87C325.677 1133.93 325.963 1134 326.153 1134.07ZM336.138 1138.75V1158H330.843V1134.23H335.897L336.138 1138.75ZM343.411 1134.07L343.367 1138.99C343.045 1138.94 342.694 1138.89 342.313 1138.86C341.946 1138.83 341.58 1138.82 341.214 1138.82C340.306 1138.82 339.508 1138.95 338.819 1139.21C338.131 1139.46 337.552 1139.83 337.083 1140.31C336.629 1140.78 336.278 1141.35 336.029 1142.03C335.779 1142.7 335.633 1143.45 335.589 1144.29L334.381 1144.38C334.381 1142.88 334.527 1141.5 334.82 1140.22C335.113 1138.95 335.552 1137.83 336.138 1136.86C336.739 1135.9 337.486 1135.14 338.38 1134.6C339.288 1134.06 340.335 1133.79 341.522 1133.79C341.844 1133.79 342.188 1133.82 342.554 1133.87C342.935 1133.93 343.221 1134 343.411 1134.07ZM358.121 1158.44C356.363 1158.44 354.774 1158.15 353.353 1157.58C351.946 1157 350.745 1156.18 349.749 1155.14C348.768 1154.1 348.013 1152.88 347.486 1151.47C346.959 1150.07 346.695 1148.55 346.695 1146.93V1146.05C346.695 1144.19 346.966 1142.5 347.508 1140.99C348.05 1139.48 348.804 1138.2 349.771 1137.13C350.738 1136.04 351.88 1135.21 353.199 1134.64C354.517 1134.07 355.945 1133.79 357.483 1133.79C359.183 1133.79 360.67 1134.07 361.944 1134.64C363.218 1135.21 364.273 1136.02 365.108 1137.06C365.958 1138.09 366.588 1139.31 366.998 1140.73C367.422 1142.15 367.635 1143.72 367.635 1145.43V1147.69H349.266V1143.89H362.405V1143.48C362.376 1142.52 362.186 1141.63 361.834 1140.8C361.497 1139.96 360.977 1139.29 360.274 1138.77C359.571 1138.26 358.633 1138 357.462 1138C356.583 1138 355.799 1138.2 355.11 1138.58C354.437 1138.94 353.873 1139.48 353.419 1140.18C352.964 1140.88 352.613 1141.73 352.364 1142.73C352.129 1143.71 352.012 1144.82 352.012 1146.05V1146.93C352.012 1147.97 352.151 1148.93 352.43 1149.83C352.723 1150.71 353.148 1151.47 353.704 1152.13C354.261 1152.79 354.935 1153.31 355.726 1153.69C356.517 1154.06 357.418 1154.24 358.428 1154.24C359.703 1154.24 360.838 1153.99 361.834 1153.47C362.83 1152.96 363.694 1152.24 364.427 1151.3L367.217 1154C366.705 1154.75 366.038 1155.47 365.218 1156.15C364.398 1156.83 363.394 1157.38 362.208 1157.8C361.036 1158.23 359.673 1158.44 358.121 1158.44ZM378.785 1124.25V1158H373.467V1124.25H378.785ZM399.339 1153.23V1141.89C399.339 1141.04 399.185 1140.31 398.877 1139.7C398.57 1139.08 398.101 1138.61 397.471 1138.27C396.856 1137.93 396.079 1137.76 395.142 1137.76C394.278 1137.76 393.531 1137.91 392.901 1138.2C392.271 1138.5 391.78 1138.89 391.429 1139.39C391.077 1139.89 390.901 1140.45 390.901 1141.08H385.628C385.628 1140.14 385.855 1139.24 386.309 1138.36C386.763 1137.48 387.422 1136.69 388.287 1136.01C389.151 1135.32 390.183 1134.77 391.385 1134.38C392.586 1133.98 393.933 1133.79 395.428 1133.79C397.215 1133.79 398.797 1134.09 400.174 1134.69C401.565 1135.29 402.657 1136.2 403.448 1137.41C404.253 1138.61 404.656 1140.12 404.656 1141.94V1152.51C404.656 1153.59 404.729 1154.56 404.876 1155.43C405.037 1156.28 405.264 1157.02 405.557 1157.65V1158H400.13C399.881 1157.43 399.683 1156.7 399.537 1155.82C399.405 1154.93 399.339 1154.07 399.339 1153.23ZM400.108 1143.54L400.152 1146.82H396.35C395.369 1146.82 394.505 1146.91 393.758 1147.1C393.011 1147.28 392.388 1147.54 391.89 1147.89C391.392 1148.24 391.018 1148.67 390.769 1149.17C390.52 1149.67 390.396 1150.23 390.396 1150.86C390.396 1151.49 390.542 1152.07 390.835 1152.59C391.128 1153.11 391.553 1153.51 392.11 1153.8C392.681 1154.1 393.37 1154.24 394.175 1154.24C395.259 1154.24 396.204 1154.02 397.01 1153.58C397.83 1153.13 398.475 1152.58 398.943 1151.94C399.412 1151.28 399.661 1150.65 399.69 1150.07L401.404 1152.42C401.228 1153.02 400.928 1153.66 400.503 1154.35C400.079 1155.04 399.522 1155.7 398.833 1156.33C398.16 1156.95 397.347 1157.45 396.394 1157.85C395.457 1158.24 394.373 1158.44 393.142 1158.44C391.59 1158.44 390.205 1158.13 388.99 1157.52C387.774 1156.89 386.822 1156.04 386.133 1154.99C385.445 1153.92 385.1 1152.71 385.1 1151.36C385.1 1150.1 385.335 1148.99 385.804 1148.02C386.287 1147.04 386.99 1146.22 387.913 1145.56C388.85 1144.9 389.993 1144.41 391.341 1144.07C392.688 1143.72 394.226 1143.54 395.955 1143.54H400.108ZM422.442 1134.23V1138.09H409.038V1134.23H422.442ZM412.906 1128.4H418.201V1151.43C418.201 1152.16 418.304 1152.73 418.509 1153.12C418.728 1153.5 419.029 1153.76 419.409 1153.89C419.79 1154.02 420.237 1154.09 420.75 1154.09C421.116 1154.09 421.468 1154.07 421.804 1154.02C422.141 1153.98 422.412 1153.94 422.617 1153.89L422.639 1157.93C422.2 1158.07 421.687 1158.18 421.101 1158.29C420.53 1158.39 419.871 1158.44 419.124 1158.44C417.908 1158.44 416.831 1158.23 415.894 1157.8C414.956 1157.36 414.224 1156.65 413.697 1155.67C413.169 1154.69 412.906 1153.39 412.906 1151.76V1128.4ZM433.548 1134.23V1158H428.23V1134.23H433.548ZM427.879 1127.99C427.879 1127.18 428.142 1126.51 428.67 1125.99C429.212 1125.44 429.959 1125.17 430.911 1125.17C431.848 1125.17 432.588 1125.44 433.13 1125.99C433.672 1126.51 433.943 1127.18 433.943 1127.99C433.943 1128.78 433.672 1129.44 433.13 1129.96C432.588 1130.49 431.848 1130.75 430.911 1130.75C429.959 1130.75 429.212 1130.49 428.67 1129.96C428.142 1129.44 427.879 1128.78 427.879 1127.99ZM439.688 1146.38V1145.87C439.688 1144.16 439.937 1142.57 440.435 1141.1C440.933 1139.62 441.65 1138.34 442.588 1137.26C443.54 1136.16 444.697 1135.31 446.06 1134.71C447.437 1134.09 448.989 1133.79 450.718 1133.79C452.461 1133.79 454.014 1134.09 455.376 1134.71C456.753 1135.31 457.918 1136.16 458.87 1137.26C459.822 1138.34 460.547 1139.62 461.045 1141.1C461.543 1142.57 461.792 1144.16 461.792 1145.87V1146.38C461.792 1148.09 461.543 1149.68 461.045 1151.14C460.547 1152.61 459.822 1153.89 458.87 1154.99C457.918 1156.07 456.76 1156.92 455.398 1157.54C454.036 1158.14 452.49 1158.44 450.762 1158.44C449.019 1158.44 447.459 1158.14 446.082 1157.54C444.719 1156.92 443.562 1156.07 442.61 1154.99C441.658 1153.89 440.933 1152.61 440.435 1151.14C439.937 1149.68 439.688 1148.09 439.688 1146.38ZM444.983 1145.87V1146.38C444.983 1147.45 445.093 1148.46 445.313 1149.41C445.532 1150.36 445.877 1151.2 446.345 1151.91C446.814 1152.63 447.415 1153.2 448.147 1153.61C448.879 1154.02 449.751 1154.22 450.762 1154.22C451.743 1154.22 452.593 1154.02 453.311 1153.61C454.043 1153.2 454.644 1152.63 455.112 1151.91C455.581 1151.2 455.925 1150.36 456.145 1149.41C456.379 1148.46 456.497 1147.45 456.497 1146.38V1145.87C456.497 1144.82 456.379 1143.82 456.145 1142.88C455.925 1141.93 455.574 1141.09 455.09 1140.36C454.622 1139.62 454.021 1139.05 453.289 1138.64C452.571 1138.22 451.714 1138 450.718 1138C449.722 1138 448.858 1138.22 448.125 1138.64C447.407 1139.05 446.814 1139.62 446.345 1140.36C445.877 1141.09 445.532 1141.93 445.313 1142.88C445.093 1143.82 444.983 1144.82 444.983 1145.87ZM472.832 1139.3V1158H467.537V1134.23H472.524L472.832 1139.3ZM471.887 1145.23L470.173 1145.21C470.188 1143.53 470.422 1141.98 470.876 1140.58C471.345 1139.17 471.99 1137.96 472.81 1136.95C473.645 1135.94 474.641 1135.16 475.798 1134.62C476.956 1134.06 478.245 1133.79 479.666 1133.79C480.808 1133.79 481.841 1133.95 482.764 1134.27C483.701 1134.58 484.5 1135.08 485.159 1135.79C485.833 1136.49 486.345 1137.4 486.697 1138.53C487.048 1139.65 487.224 1141.02 487.224 1142.64V1158H481.907V1142.62C481.907 1141.48 481.738 1140.58 481.401 1139.92C481.079 1139.24 480.603 1138.77 479.973 1138.49C479.358 1138.2 478.589 1138.05 477.666 1138.05C476.758 1138.05 475.945 1138.24 475.227 1138.62C474.509 1139 473.901 1139.52 473.403 1140.18C472.92 1140.84 472.546 1141.6 472.283 1142.47C472.019 1143.33 471.887 1144.25 471.887 1145.23Z" fill="white"/>
<path d="M72.2764 660.585H77.7695C77.5938 662.68 77.0078 664.547 76.0117 666.188C75.0156 667.814 73.6167 669.096 71.8149 670.033C70.0132 670.971 67.8232 671.439 65.2451 671.439C63.2676 671.439 61.4878 671.088 59.9058 670.385C58.3237 669.667 56.9688 668.656 55.8408 667.353C54.7129 666.034 53.8486 664.445 53.248 662.584C52.6621 660.724 52.3691 658.644 52.3691 656.344V653.686C52.3691 651.386 52.6694 649.306 53.27 647.445C53.8853 645.585 54.7642 643.996 55.9067 642.677C57.0493 641.344 58.4189 640.326 60.0156 639.623C61.627 638.92 63.436 638.568 65.4429 638.568C67.9917 638.568 70.145 639.037 71.9028 639.975C73.6606 640.912 75.0229 642.208 75.9897 643.864C76.9712 645.519 77.5718 647.416 77.7915 649.555H72.2983C72.1519 648.178 71.8296 646.999 71.3315 646.017C70.8481 645.036 70.1304 644.289 69.1782 643.776C68.2261 643.249 66.981 642.985 65.4429 642.985C64.1831 642.985 63.0845 643.219 62.147 643.688C61.2095 644.157 60.4258 644.845 59.7959 645.753C59.166 646.662 58.6899 647.782 58.3677 649.115C58.0601 650.434 57.9062 651.942 57.9062 653.642V656.344C57.9062 657.956 58.0454 659.42 58.3237 660.739C58.6167 662.042 59.0562 663.163 59.6421 664.101C60.2427 665.038 61.0044 665.763 61.9272 666.276C62.8501 666.789 63.9561 667.045 65.2451 667.045C66.8125 667.045 68.0796 666.796 69.0464 666.298C70.0278 665.8 70.7676 665.075 71.2656 664.123C71.7783 663.156 72.1152 661.977 72.2764 660.585ZM97.0053 666.232V654.894C97.0053 654.044 96.8515 653.312 96.5438 652.697C96.2362 652.082 95.7675 651.605 95.1376 651.269C94.5224 650.932 93.746 650.763 92.8085 650.763C91.9442 650.763 91.1972 650.91 90.5673 651.203C89.9374 651.496 89.4467 651.891 89.0951 652.389C88.7436 652.887 88.5678 653.451 88.5678 654.081H83.2943C83.2943 653.144 83.5214 652.235 83.9755 651.356C84.4296 650.478 85.0888 649.694 85.953 649.005C86.8173 648.317 87.85 647.775 89.0512 647.379C90.2523 646.984 91.6 646.786 93.0941 646.786C94.8813 646.786 96.4633 647.086 97.8402 647.687C99.2318 648.288 100.323 649.196 101.114 650.412C101.92 651.613 102.323 653.122 102.323 654.938V665.507C102.323 666.591 102.396 667.565 102.542 668.429C102.704 669.279 102.931 670.019 103.224 670.648V671H97.7963C97.5473 670.429 97.3495 669.704 97.203 668.825C97.0712 667.931 97.0053 667.067 97.0053 666.232ZM97.7743 656.542L97.8183 659.816H94.017C93.0355 659.816 92.1713 659.911 91.4242 660.102C90.6771 660.277 90.0546 660.541 89.5565 660.893C89.0585 661.244 88.685 661.669 88.4359 662.167C88.1869 662.665 88.0624 663.229 88.0624 663.859C88.0624 664.489 88.2089 665.067 88.5019 665.595C88.7948 666.107 89.2196 666.51 89.7763 666.803C90.3476 667.096 91.036 667.243 91.8417 667.243C92.9257 667.243 93.8705 667.023 94.6762 666.583C95.4965 666.129 96.141 665.58 96.6098 664.936C97.0785 664.276 97.3275 663.654 97.3568 663.068L99.0707 665.419C98.8949 666.02 98.5946 666.664 98.1698 667.353C97.745 668.041 97.1884 668.7 96.4999 669.33C95.8261 669.945 95.0131 670.451 94.0609 670.846C93.1234 671.242 92.0395 671.439 90.809 671.439C89.2563 671.439 87.872 671.132 86.6562 670.517C85.4403 669.887 84.4882 669.044 83.7997 667.99C83.1112 666.92 82.767 665.712 82.767 664.364C82.767 663.104 83.0014 661.991 83.4701 661.024C83.9535 660.043 84.6566 659.223 85.5795 658.563C86.517 657.904 87.6596 657.406 89.0072 657.069C90.3549 656.718 91.893 656.542 93.6215 656.542H97.7743ZM114.527 651.752V671H109.232V647.226H114.285L114.527 651.752ZM121.8 647.072L121.756 651.994C121.434 651.935 121.082 651.891 120.701 651.862C120.335 651.833 119.969 651.818 119.603 651.818C118.695 651.818 117.896 651.95 117.208 652.213C116.519 652.462 115.941 652.829 115.472 653.312C115.018 653.781 114.666 654.352 114.417 655.026C114.168 655.7 114.022 656.454 113.978 657.289L112.769 657.377C112.769 655.883 112.916 654.499 113.209 653.224C113.502 651.95 113.941 650.829 114.527 649.862C115.128 648.896 115.875 648.141 116.768 647.599C117.677 647.057 118.724 646.786 119.91 646.786C120.233 646.786 120.577 646.815 120.943 646.874C121.324 646.933 121.61 646.999 121.8 647.072ZM140.53 666.078V637.25H145.848V671H141.036L140.53 666.078ZM125.062 659.376V658.915C125.062 657.113 125.274 655.473 125.699 653.993C126.124 652.499 126.739 651.217 127.545 650.148C128.35 649.064 129.332 648.236 130.489 647.665C131.646 647.079 132.95 646.786 134.4 646.786C135.836 646.786 137.095 647.064 138.179 647.621C139.263 648.178 140.186 648.976 140.948 650.016C141.71 651.042 142.318 652.272 142.772 653.708C143.226 655.128 143.548 656.71 143.738 658.454V659.926C143.548 661.625 143.226 663.178 142.772 664.584C142.318 665.99 141.71 667.206 140.948 668.231C140.186 669.257 139.256 670.048 138.157 670.604C137.073 671.161 135.806 671.439 134.356 671.439C132.921 671.439 131.624 671.139 130.467 670.539C129.324 669.938 128.35 669.096 127.545 668.012C126.739 666.928 126.124 665.653 125.699 664.188C125.274 662.709 125.062 661.105 125.062 659.376ZM130.357 658.915V659.376C130.357 660.46 130.452 661.471 130.643 662.409C130.848 663.346 131.163 664.174 131.588 664.892C132.012 665.595 132.562 666.151 133.236 666.562C133.924 666.957 134.744 667.155 135.696 667.155C136.898 667.155 137.886 666.891 138.663 666.364C139.439 665.836 140.047 665.126 140.487 664.232C140.941 663.324 141.248 662.313 141.409 661.2V657.223C141.321 656.359 141.138 655.553 140.86 654.806C140.596 654.059 140.238 653.407 139.783 652.851C139.329 652.279 138.765 651.84 138.092 651.532C137.432 651.21 136.649 651.049 135.74 651.049C134.774 651.049 133.953 651.254 133.279 651.664C132.606 652.074 132.049 652.638 131.61 653.356C131.185 654.074 130.87 654.909 130.665 655.861C130.46 656.813 130.357 657.831 130.357 658.915ZM158.404 647.226V671H153.087V647.226H158.404ZM152.735 640.985C152.735 640.18 152.999 639.513 153.526 638.986C154.068 638.444 154.815 638.173 155.767 638.173C156.705 638.173 157.444 638.444 157.986 638.986C158.528 639.513 158.799 640.18 158.799 640.985C158.799 641.776 158.528 642.436 157.986 642.963C157.444 643.49 156.705 643.754 155.767 643.754C154.815 643.754 154.068 643.49 153.526 642.963C152.999 642.436 152.735 641.776 152.735 640.985ZM170.806 652.301V671H165.511V647.226H170.499L170.806 652.301ZM169.861 658.234L168.147 658.212C168.162 656.527 168.396 654.982 168.851 653.576C169.319 652.169 169.964 650.961 170.784 649.95C171.619 648.939 172.615 648.163 173.772 647.621C174.93 647.064 176.219 646.786 177.64 646.786C178.782 646.786 179.815 646.947 180.738 647.27C181.675 647.577 182.474 648.083 183.133 648.786C183.807 649.489 184.319 650.404 184.671 651.532C185.022 652.646 185.198 654.015 185.198 655.641V671H179.881V655.619C179.881 654.477 179.712 653.576 179.375 652.917C179.053 652.243 178.577 651.767 177.947 651.488C177.332 651.195 176.563 651.049 175.64 651.049C174.732 651.049 173.919 651.239 173.201 651.62C172.483 652.001 171.875 652.521 171.377 653.18C170.894 653.839 170.521 654.601 170.257 655.465C169.993 656.33 169.861 657.252 169.861 658.234ZM205.357 666.232V654.894C205.357 654.044 205.203 653.312 204.895 652.697C204.588 652.082 204.119 651.605 203.489 651.269C202.874 650.932 202.098 650.763 201.16 650.763C200.296 650.763 199.549 650.91 198.919 651.203C198.289 651.496 197.798 651.891 197.447 652.389C197.095 652.887 196.919 653.451 196.919 654.081H191.646C191.646 653.144 191.873 652.235 192.327 651.356C192.781 650.478 193.44 649.694 194.305 649.005C195.169 648.317 196.202 647.775 197.403 647.379C198.604 646.984 199.952 646.786 201.446 646.786C203.233 646.786 204.815 647.086 206.192 647.687C207.583 648.288 208.675 649.196 209.466 650.412C210.271 651.613 210.674 653.122 210.674 654.938V665.507C210.674 666.591 210.747 667.565 210.894 668.429C211.055 669.279 211.282 670.019 211.575 670.648V671H206.148C205.899 670.429 205.701 669.704 205.555 668.825C205.423 667.931 205.357 667.067 205.357 666.232ZM206.126 656.542L206.17 659.816H202.369C201.387 659.816 200.523 659.911 199.776 660.102C199.029 660.277 198.406 660.541 197.908 660.893C197.41 661.244 197.037 661.669 196.788 662.167C196.538 662.665 196.414 663.229 196.414 663.859C196.414 664.489 196.56 665.067 196.853 665.595C197.146 666.107 197.571 666.51 198.128 666.803C198.699 667.096 199.388 667.243 200.193 667.243C201.277 667.243 202.222 667.023 203.028 666.583C203.848 666.129 204.493 665.58 204.961 664.936C205.43 664.276 205.679 663.654 205.708 663.068L207.422 665.419C207.246 666.02 206.946 666.664 206.521 667.353C206.097 668.041 205.54 668.7 204.851 669.33C204.178 669.945 203.365 670.451 202.413 670.846C201.475 671.242 200.391 671.439 199.161 671.439C197.608 671.439 196.224 671.132 195.008 670.517C193.792 669.887 192.84 669.044 192.151 667.99C191.463 666.92 191.119 665.712 191.119 664.364C191.119 663.104 191.353 661.991 191.822 661.024C192.305 660.043 193.008 659.223 193.931 658.563C194.869 657.904 196.011 657.406 197.359 657.069C198.706 656.718 200.245 656.542 201.973 656.542H206.126ZM223.23 637.25V671H217.913V637.25H223.23ZM236.05 647.226V671H230.733V647.226H236.05ZM230.381 640.985C230.381 640.18 230.645 639.513 231.172 638.986C231.714 638.444 232.461 638.173 233.413 638.173C234.351 638.173 235.091 638.444 235.633 638.986C236.175 639.513 236.446 640.18 236.446 640.985C236.446 641.776 236.175 642.436 235.633 642.963C235.091 643.49 234.351 643.754 233.413 643.754C232.461 643.754 231.714 643.49 231.172 642.963C230.645 642.436 230.381 641.776 230.381 640.985ZM254.099 647.226V651.093H240.696V647.226H254.099ZM244.563 641.403H249.858V664.43C249.858 665.163 249.961 665.727 250.166 666.122C250.386 666.503 250.686 666.759 251.067 666.891C251.448 667.023 251.895 667.089 252.407 667.089C252.774 667.089 253.125 667.067 253.462 667.023C253.799 666.979 254.07 666.935 254.275 666.891L254.297 670.934C253.858 671.066 253.345 671.183 252.759 671.286C252.188 671.388 251.528 671.439 250.781 671.439C249.566 671.439 248.489 671.227 247.551 670.802C246.614 670.363 245.881 669.652 245.354 668.671C244.827 667.689 244.563 666.386 244.563 664.76V641.403ZM266.436 668.407L272.896 647.226H278.564L269.028 674.625C268.809 675.211 268.523 675.849 268.171 676.537C267.82 677.226 267.358 677.877 266.787 678.493C266.23 679.123 265.535 679.628 264.7 680.009C263.865 680.404 262.854 680.602 261.667 680.602C261.199 680.602 260.745 680.558 260.305 680.47C259.88 680.397 259.478 680.316 259.097 680.229L259.075 676.186C259.221 676.2 259.397 676.215 259.602 676.229C259.822 676.244 259.998 676.251 260.129 676.251C261.008 676.251 261.741 676.142 262.327 675.922C262.913 675.717 263.389 675.38 263.755 674.911C264.136 674.442 264.458 673.812 264.722 673.021L266.436 668.407ZM262.788 647.226L268.435 665.023L269.38 670.604L265.71 671.549L257.075 647.226H262.788Z" fill="white"/>
<g filter="url(#filter1_d_858_334)">
<path d="M770.152 448.373L895.524 665.524L770.152 882.676L519.407 882.676L394.034 665.524L519.407 448.373L770.152 448.373Z" fill="white"/>
<path d="M521.139 451.373L768.419 451.373L892.06 665.524L768.419 879.676L521.139 879.676L397.498 665.524L521.139 451.373Z" stroke="#6347D9" stroke-width="6"/>
</g>
<g filter="url(#filter2_d_858_334)">
<path d="M754.916 474.373L865.288 665.543L754.916 856.714L534.171 856.714L423.798 665.543L534.171 474.373L754.916 474.373Z" fill="#6347D9"/>
<path d="M534.46 474.872L754.627 474.873L864.711 665.543L754.627 856.214L534.46 856.214L424.376 665.543L534.46 474.872Z" stroke="#6347D9"/>
</g>
<path d="M517.197 619.188V620.711C517.197 623.305 516.837 625.633 516.119 627.695C515.416 629.758 514.408 631.516 513.095 632.969C511.798 634.422 510.252 635.539 508.455 636.32C506.673 637.086 504.697 637.469 502.525 637.469C500.353 637.469 498.369 637.086 496.572 636.32C494.775 635.539 493.212 634.422 491.884 632.969C490.572 631.516 489.556 629.758 488.837 627.695C488.119 625.633 487.759 623.305 487.759 620.711V619.188C487.759 616.594 488.119 614.266 488.837 612.203C489.556 610.125 490.564 608.359 491.861 606.906C493.173 605.453 494.728 604.344 496.525 603.578C498.322 602.797 500.306 602.406 502.478 602.406C504.65 602.406 506.634 602.797 508.431 603.578C510.228 604.344 511.775 605.453 513.072 606.906C514.384 608.359 515.4 610.125 516.119 612.203C516.837 614.266 517.197 616.594 517.197 619.188ZM509.486 620.711V619.141C509.486 617.406 509.33 615.875 509.017 614.547C508.705 613.203 508.252 612.078 507.658 611.172C507.064 610.266 506.33 609.586 505.455 609.133C504.58 608.664 503.587 608.43 502.478 608.43C501.322 608.43 500.314 608.664 499.455 609.133C498.595 609.586 497.869 610.266 497.275 611.172C496.697 612.078 496.252 613.203 495.939 614.547C495.642 615.875 495.494 617.406 495.494 619.141V620.711C495.494 622.43 495.642 623.961 495.939 625.305C496.252 626.633 496.705 627.758 497.298 628.68C497.892 629.602 498.619 630.297 499.478 630.766C500.353 631.234 501.369 631.469 502.525 631.469C503.634 631.469 504.619 631.234 505.478 630.766C506.353 630.297 507.087 629.602 507.681 628.68C508.275 627.758 508.72 626.633 509.017 625.305C509.33 623.961 509.486 622.43 509.486 620.711ZM523.933 601H531.245V630.977L530.495 637H523.933V601ZM547.066 624.039V624.531C547.066 626.453 546.862 628.203 546.456 629.781C546.066 631.359 545.464 632.727 544.652 633.883C543.839 635.023 542.816 635.906 541.581 636.531C540.347 637.156 538.894 637.469 537.222 637.469C535.675 637.469 534.347 637.148 533.237 636.508C532.128 635.852 531.198 634.945 530.448 633.789C529.698 632.633 529.089 631.281 528.62 629.734C528.167 628.188 527.816 626.523 527.566 624.742V623.898C527.816 622.117 528.167 620.453 528.62 618.906C529.089 617.359 529.698 616.008 530.448 614.852C531.198 613.695 532.12 612.797 533.214 612.156C534.323 611.5 535.644 611.172 537.175 611.172C538.862 611.172 540.323 611.492 541.558 612.133C542.808 612.773 543.839 613.672 544.652 614.828C545.464 615.969 546.066 617.328 546.456 618.906C546.862 620.469 547.066 622.18 547.066 624.039ZM539.753 624.531V624.039C539.753 623.07 539.683 622.156 539.542 621.297C539.417 620.438 539.191 619.68 538.862 619.023C538.55 618.352 538.105 617.828 537.527 617.453C536.964 617.062 536.237 616.867 535.347 616.867C534.472 616.867 533.73 617.016 533.12 617.312C532.511 617.609 532.019 618.031 531.644 618.578C531.269 619.109 530.995 619.758 530.823 620.523C530.652 621.289 530.558 622.141 530.542 623.078V625.562C530.558 626.812 530.722 627.906 531.034 628.844C531.347 629.781 531.855 630.508 532.558 631.023C533.261 631.523 534.206 631.773 535.394 631.773C536.3 631.773 537.034 631.602 537.597 631.258C538.175 630.898 538.612 630.398 538.909 629.758C539.222 629.117 539.441 628.352 539.566 627.461C539.691 626.57 539.753 625.594 539.753 624.531ZM566.856 629.945C566.856 629.477 566.708 629.062 566.411 628.703C566.13 628.344 565.614 628.016 564.864 627.719C564.13 627.422 563.091 627.125 561.747 626.828C560.481 626.562 559.302 626.219 558.208 625.797C557.114 625.359 556.161 624.836 555.348 624.227C554.536 623.602 553.903 622.867 553.45 622.023C552.997 621.164 552.77 620.188 552.77 619.094C552.77 618.031 552.997 617.023 553.45 616.07C553.919 615.117 554.591 614.273 555.466 613.539C556.356 612.805 557.434 612.227 558.7 611.805C559.981 611.383 561.434 611.172 563.059 611.172C565.294 611.172 567.223 611.523 568.848 612.227C570.473 612.914 571.723 613.883 572.598 615.133C573.473 616.367 573.911 617.781 573.911 619.375H566.598C566.598 618.719 566.473 618.148 566.223 617.664C565.973 617.18 565.591 616.805 565.075 616.539C564.559 616.258 563.88 616.117 563.036 616.117C562.38 616.117 561.802 616.234 561.302 616.469C560.817 616.688 560.434 616.992 560.153 617.383C559.887 617.773 559.755 618.227 559.755 618.742C559.755 619.102 559.833 619.43 559.989 619.727C560.161 620.008 560.419 620.273 560.762 620.523C561.122 620.758 561.583 620.969 562.145 621.156C562.723 621.344 563.427 621.523 564.255 621.695C566.02 622.023 567.63 622.484 569.083 623.078C570.552 623.672 571.723 624.492 572.598 625.539C573.489 626.586 573.934 627.969 573.934 629.688C573.934 630.812 573.677 631.844 573.161 632.781C572.661 633.719 571.934 634.539 570.981 635.242C570.028 635.945 568.887 636.492 567.559 636.883C566.231 637.273 564.731 637.469 563.059 637.469C560.669 637.469 558.645 637.039 556.989 636.18C555.333 635.32 554.083 634.242 553.239 632.945C552.411 631.633 551.997 630.289 551.997 628.914H558.864C558.895 629.758 559.106 630.445 559.497 630.977C559.903 631.508 560.427 631.898 561.067 632.148C561.708 632.383 562.427 632.5 563.223 632.5C564.02 632.5 564.684 632.391 565.216 632.172C565.747 631.953 566.153 631.656 566.434 631.281C566.716 630.891 566.856 630.445 566.856 629.945ZM592.366 637.469C590.35 637.469 588.545 637.148 586.952 636.508C585.358 635.867 584.006 634.984 582.897 633.859C581.803 632.719 580.967 631.406 580.389 629.922C579.811 628.438 579.522 626.852 579.522 625.164V624.273C579.522 622.383 579.787 620.641 580.319 619.047C580.85 617.453 581.623 616.07 582.639 614.898C583.67 613.711 584.936 612.797 586.436 612.156C587.936 611.5 589.647 611.172 591.569 611.172C593.366 611.172 594.967 611.469 596.373 612.062C597.78 612.641 598.967 613.477 599.936 614.57C600.905 615.648 601.639 616.953 602.139 618.484C602.655 620 602.912 621.703 602.912 623.594V626.594H582.475V621.883H595.741V621.32C595.741 620.43 595.577 619.648 595.248 618.977C594.936 618.305 594.467 617.789 593.842 617.43C593.233 617.055 592.459 616.867 591.522 616.867C590.631 616.867 589.889 617.055 589.295 617.43C588.702 617.805 588.225 618.336 587.866 619.023C587.522 619.695 587.272 620.484 587.116 621.391C586.959 622.281 586.881 623.242 586.881 624.273V625.164C586.881 626.148 587.014 627.047 587.28 627.859C587.545 628.672 587.936 629.367 588.452 629.945C588.967 630.523 589.592 630.977 590.327 631.305C591.061 631.633 591.897 631.797 592.834 631.797C593.991 631.797 595.092 631.578 596.139 631.141C597.186 630.688 598.092 629.984 598.858 629.031L602.28 632.945C601.764 633.695 601.037 634.422 600.1 635.125C599.178 635.812 598.069 636.375 596.772 636.812C595.475 637.25 594.006 637.469 592.366 637.469ZM616.211 617.547V637H608.898V611.641H615.766L616.211 617.547ZM623.781 611.453L623.664 618.273C623.352 618.227 622.945 618.188 622.445 618.156C621.945 618.109 621.516 618.086 621.156 618.086C620.219 618.086 619.406 618.203 618.719 618.438C618.047 618.656 617.484 618.984 617.031 619.422C616.594 619.859 616.266 620.406 616.047 621.062C615.828 621.703 615.719 622.445 615.719 623.289L614.336 622.609C614.336 620.938 614.5 619.406 614.828 618.016C615.156 616.625 615.633 615.422 616.258 614.406C616.883 613.375 617.648 612.578 618.555 612.016C619.461 611.453 620.492 611.172 621.648 611.172C622.023 611.172 622.406 611.195 622.797 611.242C623.188 611.289 623.516 611.359 623.781 611.453ZM638.486 631.82L643.783 611.641H651.47L643.056 637H638.439L638.486 631.82ZM635.064 611.641L640.337 631.844L640.384 637H635.767L627.353 611.641H635.064ZM669.62 630.953V620.078C669.62 619.312 669.503 618.656 669.269 618.109C669.034 617.562 668.667 617.133 668.167 616.82C667.667 616.508 667.019 616.352 666.222 616.352C665.55 616.352 664.964 616.469 664.464 616.703C663.98 616.938 663.605 617.273 663.339 617.711C663.089 618.148 662.964 618.688 662.964 619.328H655.652C655.652 618.188 655.909 617.125 656.425 616.141C656.941 615.156 657.675 614.289 658.628 613.539C659.597 612.789 660.753 612.211 662.097 611.805C663.441 611.383 664.948 611.172 666.62 611.172C668.605 611.172 670.37 611.508 671.917 612.18C673.48 612.836 674.714 613.828 675.62 615.156C676.527 616.469 676.98 618.125 676.98 620.125V630.742C676.98 632.273 677.066 633.477 677.237 634.352C677.425 635.211 677.691 635.961 678.034 636.602V637H670.652C670.308 636.266 670.05 635.359 669.878 634.281C669.706 633.188 669.62 632.078 669.62 630.953ZM670.534 621.531L670.581 625.562H666.948C666.136 625.562 665.433 625.664 664.839 625.867C664.261 626.07 663.792 626.352 663.433 626.711C663.073 627.055 662.808 627.461 662.636 627.93C662.48 628.383 662.402 628.883 662.402 629.43C662.402 629.945 662.527 630.414 662.777 630.836C663.027 631.242 663.37 631.562 663.808 631.797C664.245 632.031 664.753 632.148 665.331 632.148C666.284 632.148 667.097 631.961 667.769 631.586C668.456 631.211 668.987 630.758 669.362 630.227C669.737 629.68 669.925 629.172 669.925 628.703L671.683 631.75C671.402 632.375 671.058 633.023 670.652 633.695C670.245 634.352 669.73 634.969 669.105 635.547C668.48 636.109 667.722 636.57 666.831 636.93C665.956 637.289 664.902 637.469 663.667 637.469C662.073 637.469 660.628 637.148 659.331 636.508C658.034 635.852 656.995 634.953 656.214 633.812C655.448 632.672 655.066 631.359 655.066 629.875C655.066 628.547 655.308 627.367 655.792 626.336C656.277 625.305 657.003 624.43 657.972 623.711C658.956 622.992 660.191 622.453 661.675 622.094C663.159 621.719 664.894 621.531 666.878 621.531H670.534ZM684.208 601H691.52V630.977L690.77 637H684.208V601ZM707.341 624.039V624.531C707.341 626.453 707.137 628.203 706.731 629.781C706.341 631.359 705.739 632.727 704.927 633.883C704.114 635.023 703.091 635.906 701.856 636.531C700.622 637.156 699.169 637.469 697.497 637.469C695.95 637.469 694.622 637.148 693.512 636.508C692.403 635.852 691.473 634.945 690.723 633.789C689.973 632.633 689.364 631.281 688.895 629.734C688.442 628.188 688.091 626.523 687.841 624.742V623.898C688.091 622.117 688.442 620.453 688.895 618.906C689.364 617.359 689.973 616.008 690.723 614.852C691.473 613.695 692.395 612.797 693.489 612.156C694.598 611.5 695.919 611.172 697.45 611.172C699.137 611.172 700.598 611.492 701.833 612.133C703.083 612.773 704.114 613.672 704.927 614.828C705.739 615.969 706.341 617.328 706.731 618.906C707.137 620.469 707.341 622.18 707.341 624.039ZM700.028 624.531V624.039C700.028 623.07 699.958 622.156 699.817 621.297C699.692 620.438 699.466 619.68 699.137 619.023C698.825 618.352 698.38 617.828 697.802 617.453C697.239 617.062 696.512 616.867 695.622 616.867C694.747 616.867 694.005 617.016 693.395 617.312C692.786 617.609 692.294 618.031 691.919 618.578C691.544 619.109 691.27 619.758 691.098 620.523C690.927 621.289 690.833 622.141 690.817 623.078V625.562C690.833 626.812 690.997 627.906 691.309 628.844C691.622 629.781 692.13 630.508 692.833 631.023C693.536 631.523 694.481 631.773 695.669 631.773C696.575 631.773 697.309 631.602 697.872 631.258C698.45 630.898 698.887 630.398 699.184 629.758C699.497 629.117 699.716 628.352 699.841 627.461C699.966 626.57 700.028 625.594 700.028 624.531ZM721.342 611.641V637H714.006V611.641H721.342ZM713.561 605.078C713.561 604.016 713.936 603.148 714.686 602.477C715.436 601.789 716.42 601.445 717.639 601.445C718.858 601.445 719.842 601.789 720.592 602.477C721.358 603.148 721.741 604.016 721.741 605.078C721.741 606.125 721.358 606.992 720.592 607.68C719.842 608.352 718.858 608.688 717.639 608.688C716.42 608.688 715.436 608.352 714.686 607.68C713.936 606.992 713.561 606.125 713.561 605.078ZM736.727 601V637H729.391V601H736.727ZM752.111 611.641V637H744.775V611.641H752.111ZM744.33 605.078C744.33 604.016 744.705 603.148 745.455 602.477C746.205 601.789 747.189 601.445 748.408 601.445C749.627 601.445 750.611 601.789 751.361 602.477C752.127 603.148 752.509 604.016 752.509 605.078C752.509 606.125 752.127 606.992 751.361 607.68C750.611 608.352 749.627 608.688 748.408 608.688C747.189 608.688 746.205 608.352 745.455 607.68C744.705 606.992 744.33 606.125 744.33 605.078ZM772.675 611.641V616.773H757.628V611.641H772.675ZM761.073 605.359H768.409V629.055C768.409 629.758 768.495 630.297 768.667 630.672C768.839 631.047 769.12 631.312 769.511 631.469C769.902 631.609 770.402 631.68 771.011 631.68C771.448 631.68 771.823 631.664 772.136 631.633C772.448 631.602 772.737 631.562 773.003 631.516V636.812C772.378 637.016 771.714 637.172 771.011 637.281C770.308 637.406 769.542 637.469 768.714 637.469C767.136 637.469 765.769 637.211 764.612 636.695C763.472 636.18 762.597 635.367 761.987 634.258C761.378 633.133 761.073 631.672 761.073 629.875V605.359ZM786.231 634.07L792.864 611.641H800.739L790.544 640.797C790.325 641.438 790.028 642.125 789.653 642.859C789.294 643.594 788.802 644.297 788.177 644.969C787.567 645.641 786.786 646.188 785.833 646.609C784.88 647.031 783.708 647.242 782.317 647.242C781.614 647.242 781.067 647.203 780.677 647.125C780.302 647.062 779.802 646.953 779.177 646.797L779.153 641.477C779.356 641.477 779.536 641.477 779.692 641.477C779.864 641.492 780.036 641.5 780.208 641.5C781.083 641.5 781.786 641.406 782.317 641.219C782.864 641.031 783.286 640.75 783.583 640.375C783.895 640.016 784.145 639.555 784.333 638.992L786.231 634.07ZM784.005 611.641L789.255 629.688L790.145 637.445L785.2 637.703L776.13 611.641H784.005ZM579.498 658.875V693H571.881L558.991 670.945V693H551.35V658.875H558.991L571.905 680.93V658.875H579.498ZM599.125 693.469C597.109 693.469 595.305 693.148 593.711 692.508C592.117 691.867 590.766 690.984 589.656 689.859C588.562 688.719 587.727 687.406 587.148 685.922C586.57 684.438 586.281 682.852 586.281 681.164V680.273C586.281 678.383 586.547 676.641 587.078 675.047C587.609 673.453 588.383 672.07 589.398 670.898C590.43 669.711 591.695 668.797 593.195 668.156C594.695 667.5 596.406 667.172 598.328 667.172C600.125 667.172 601.727 667.469 603.133 668.062C604.539 668.641 605.727 669.477 606.695 670.57C607.664 671.648 608.398 672.953 608.898 674.484C609.414 676 609.672 677.703 609.672 679.594V682.594H589.234V677.883H602.5V677.32C602.5 676.43 602.336 675.648 602.008 674.977C601.695 674.305 601.227 673.789 600.602 673.43C599.992 673.055 599.219 672.867 598.281 672.867C597.391 672.867 596.648 673.055 596.055 673.43C595.461 673.805 594.984 674.336 594.625 675.023C594.281 675.695 594.031 676.484 593.875 677.391C593.719 678.281 593.641 679.242 593.641 680.273V681.164C593.641 682.148 593.773 683.047 594.039 683.859C594.305 684.672 594.695 685.367 595.211 685.945C595.727 686.523 596.352 686.977 597.086 687.305C597.82 687.633 598.656 687.797 599.594 687.797C600.75 687.797 601.852 687.578 602.898 687.141C603.945 686.688 604.852 685.984 605.617 685.031L609.039 688.945C608.523 689.695 607.797 690.422 606.859 691.125C605.938 691.812 604.828 692.375 603.531 692.812C602.234 693.25 600.766 693.469 599.125 693.469ZM627.587 693.469C625.572 693.469 623.767 693.148 622.173 692.508C620.58 691.867 619.228 690.984 618.119 689.859C617.025 688.719 616.189 687.406 615.611 685.922C615.033 684.438 614.744 682.852 614.744 681.164V680.273C614.744 678.383 615.009 676.641 615.541 675.047C616.072 673.453 616.845 672.07 617.861 670.898C618.892 669.711 620.158 668.797 621.658 668.156C623.158 667.5 624.869 667.172 626.791 667.172C628.587 667.172 630.189 667.469 631.595 668.062C633.002 668.641 634.189 669.477 635.158 670.57C636.127 671.648 636.861 672.953 637.361 674.484C637.877 676 638.134 677.703 638.134 679.594V682.594H617.697V677.883H630.962V677.32C630.962 676.43 630.798 675.648 630.47 674.977C630.158 674.305 629.689 673.789 629.064 673.43C628.455 673.055 627.681 672.867 626.744 672.867C625.853 672.867 625.111 673.055 624.517 673.43C623.923 673.805 623.447 674.336 623.087 675.023C622.744 675.695 622.494 676.484 622.337 677.391C622.181 678.281 622.103 679.242 622.103 680.273V681.164C622.103 682.148 622.236 683.047 622.502 683.859C622.767 684.672 623.158 685.367 623.673 685.945C624.189 686.523 624.814 686.977 625.548 687.305C626.283 687.633 627.119 687.797 628.056 687.797C629.212 687.797 630.314 687.578 631.361 687.141C632.408 686.688 633.314 685.984 634.08 685.031L637.502 688.945C636.986 689.695 636.259 690.422 635.322 691.125C634.4 691.812 633.291 692.375 631.994 692.812C630.697 693.25 629.228 693.469 627.587 693.469ZM658.862 687.328V657H666.222V693H659.612L658.862 687.328ZM643.066 680.625V680.133C643.066 678.211 643.277 676.461 643.698 674.883C644.136 673.289 644.769 671.922 645.597 670.781C646.441 669.625 647.48 668.734 648.714 668.109C649.948 667.484 651.362 667.172 652.956 667.172C654.425 667.172 655.706 667.5 656.8 668.156C657.894 668.797 658.823 669.703 659.589 670.875C660.37 672.031 661.003 673.398 661.487 674.977C661.972 676.539 662.339 678.234 662.589 680.062V680.906C662.355 682.656 661.987 684.289 661.487 685.805C661.003 687.32 660.37 688.656 659.589 689.812C658.823 690.953 657.886 691.852 656.777 692.508C655.683 693.148 654.394 693.469 652.909 693.469C651.316 693.469 649.902 693.148 648.667 692.508C647.448 691.867 646.425 690.969 645.597 689.812C644.769 688.656 644.136 687.297 643.698 685.734C643.277 684.172 643.066 682.469 643.066 680.625ZM650.378 680.133V680.625C650.378 681.625 650.448 682.555 650.589 683.414C650.745 684.273 650.995 685.031 651.339 685.688C651.683 686.344 652.136 686.859 652.698 687.234C653.261 687.594 653.948 687.773 654.761 687.773C655.855 687.773 656.753 687.523 657.456 687.023C658.159 686.508 658.691 685.797 659.05 684.891C659.409 683.984 659.597 682.93 659.612 681.727V679.266C659.612 678.266 659.511 677.367 659.308 676.57C659.105 675.773 658.8 675.102 658.394 674.555C658.003 674.008 657.511 673.594 656.917 673.312C656.323 673.016 655.62 672.867 654.808 672.867C654.011 672.867 653.331 673.055 652.769 673.43C652.206 673.789 651.745 674.297 651.386 674.953C651.042 675.609 650.784 676.383 650.612 677.273C650.456 678.148 650.378 679.102 650.378 680.133ZM686.997 685.945C686.997 685.477 686.848 685.062 686.552 684.703C686.27 684.344 685.755 684.016 685.005 683.719C684.27 683.422 683.231 683.125 681.887 682.828C680.622 682.562 679.442 682.219 678.348 681.797C677.255 681.359 676.302 680.836 675.489 680.227C674.677 679.602 674.044 678.867 673.591 678.023C673.137 677.164 672.911 676.188 672.911 675.094C672.911 674.031 673.137 673.023 673.591 672.07C674.059 671.117 674.731 670.273 675.606 669.539C676.497 668.805 677.575 668.227 678.841 667.805C680.122 667.383 681.575 667.172 683.2 667.172C685.434 667.172 687.364 667.523 688.989 668.227C690.614 668.914 691.864 669.883 692.739 671.133C693.614 672.367 694.052 673.781 694.052 675.375H686.739C686.739 674.719 686.614 674.148 686.364 673.664C686.114 673.18 685.731 672.805 685.216 672.539C684.7 672.258 684.02 672.117 683.177 672.117C682.52 672.117 681.942 672.234 681.442 672.469C680.958 672.688 680.575 672.992 680.294 673.383C680.028 673.773 679.895 674.227 679.895 674.742C679.895 675.102 679.973 675.43 680.13 675.727C680.302 676.008 680.559 676.273 680.903 676.523C681.262 676.758 681.723 676.969 682.286 677.156C682.864 677.344 683.567 677.523 684.395 677.695C686.161 678.023 687.77 678.484 689.223 679.078C690.692 679.672 691.864 680.492 692.739 681.539C693.63 682.586 694.075 683.969 694.075 685.688C694.075 686.812 693.817 687.844 693.302 688.781C692.802 689.719 692.075 690.539 691.122 691.242C690.169 691.945 689.028 692.492 687.7 692.883C686.372 693.273 684.872 693.469 683.2 693.469C680.809 693.469 678.786 693.039 677.13 692.18C675.473 691.32 674.223 690.242 673.38 688.945C672.552 687.633 672.137 686.289 672.137 684.914H679.005C679.036 685.758 679.247 686.445 679.637 686.977C680.044 687.508 680.567 687.898 681.208 688.148C681.848 688.383 682.567 688.5 683.364 688.5C684.161 688.5 684.825 688.391 685.356 688.172C685.887 687.953 686.294 687.656 686.575 687.281C686.856 686.891 686.997 686.445 686.997 685.945ZM728.336 686.953V676.078C728.336 675.312 728.219 674.656 727.984 674.109C727.75 673.562 727.383 673.133 726.883 672.82C726.383 672.508 725.734 672.352 724.938 672.352C724.266 672.352 723.68 672.469 723.18 672.703C722.695 672.938 722.32 673.273 722.055 673.711C721.805 674.148 721.68 674.688 721.68 675.328H714.367C714.367 674.188 714.625 673.125 715.141 672.141C715.656 671.156 716.391 670.289 717.344 669.539C718.312 668.789 719.469 668.211 720.812 667.805C722.156 667.383 723.664 667.172 725.336 667.172C727.32 667.172 729.086 667.508 730.633 668.18C732.195 668.836 733.43 669.828 734.336 671.156C735.242 672.469 735.695 674.125 735.695 676.125V686.742C735.695 688.273 735.781 689.477 735.953 690.352C736.141 691.211 736.406 691.961 736.75 692.602V693H729.367C729.023 692.266 728.766 691.359 728.594 690.281C728.422 689.188 728.336 688.078 728.336 686.953ZM729.25 677.531L729.297 681.562H725.664C724.852 681.562 724.148 681.664 723.555 681.867C722.977 682.07 722.508 682.352 722.148 682.711C721.789 683.055 721.523 683.461 721.352 683.93C721.195 684.383 721.117 684.883 721.117 685.43C721.117 685.945 721.242 686.414 721.492 686.836C721.742 687.242 722.086 687.562 722.523 687.797C722.961 688.031 723.469 688.148 724.047 688.148C725 688.148 725.812 687.961 726.484 687.586C727.172 687.211 727.703 686.758 728.078 686.227C728.453 685.68 728.641 685.172 728.641 684.703L730.398 687.75C730.117 688.375 729.773 689.023 729.367 689.695C728.961 690.352 728.445 690.969 727.82 691.547C727.195 692.109 726.438 692.57 725.547 692.93C724.672 693.289 723.617 693.469 722.383 693.469C720.789 693.469 719.344 693.148 718.047 692.508C716.75 691.852 715.711 690.953 714.93 689.812C714.164 688.672 713.781 687.359 713.781 685.875C713.781 684.547 714.023 683.367 714.508 682.336C714.992 681.305 715.719 680.43 716.688 679.711C717.672 678.992 718.906 678.453 720.391 678.094C721.875 677.719 723.609 677.531 725.594 677.531H729.25ZM563.992 714.875H577.094C579.703 714.875 581.961 715.266 583.867 716.047C585.789 716.828 587.266 717.984 588.297 719.516C589.328 721.047 589.844 722.938 589.844 725.188C589.844 727.062 589.539 728.656 588.93 729.969C588.32 731.281 587.461 732.367 586.352 733.227C585.258 734.086 583.977 734.781 582.508 735.312L580.023 736.672H568.867L568.82 730.742H577.117C578.258 730.742 579.203 730.539 579.953 730.133C580.703 729.727 581.266 729.156 581.641 728.422C582.031 727.672 582.227 726.797 582.227 725.797C582.227 724.766 582.031 723.875 581.641 723.125C581.25 722.375 580.672 721.805 579.906 721.414C579.156 721.008 578.219 720.805 577.094 720.805H571.633V749H563.992V714.875ZM582.883 749L575.219 733.836L583.281 733.812L591.062 748.648V749H582.883ZM609.002 749.469C606.986 749.469 605.181 749.148 603.588 748.508C601.994 747.867 600.642 746.984 599.533 745.859C598.439 744.719 597.603 743.406 597.025 741.922C596.447 740.438 596.158 738.852 596.158 737.164V736.273C596.158 734.383 596.423 732.641 596.955 731.047C597.486 729.453 598.259 728.07 599.275 726.898C600.306 725.711 601.572 724.797 603.072 724.156C604.572 723.5 606.283 723.172 608.205 723.172C610.002 723.172 611.603 723.469 613.009 724.062C614.416 724.641 615.603 725.477 616.572 726.57C617.541 727.648 618.275 728.953 618.775 730.484C619.291 732 619.548 733.703 619.548 735.594V738.594H599.111V733.883H612.377V733.32C612.377 732.43 612.213 731.648 611.884 730.977C611.572 730.305 611.103 729.789 610.478 729.43C609.869 729.055 609.095 728.867 608.158 728.867C607.267 728.867 606.525 729.055 605.931 729.43C605.338 729.805 604.861 730.336 604.502 731.023C604.158 731.695 603.908 732.484 603.752 733.391C603.595 734.281 603.517 735.242 603.517 736.273V737.164C603.517 738.148 603.65 739.047 603.916 739.859C604.181 740.672 604.572 741.367 605.088 741.945C605.603 742.523 606.228 742.977 606.963 743.305C607.697 743.633 608.533 743.797 609.47 743.797C610.627 743.797 611.728 743.578 612.775 743.141C613.822 742.688 614.728 741.984 615.494 741.031L618.916 744.945C618.4 745.695 617.673 746.422 616.736 747.125C615.814 747.812 614.705 748.375 613.408 748.812C612.111 749.25 610.642 749.469 609.002 749.469ZM625.534 713H632.847V742.977L632.097 749H625.534V713ZM648.667 736.039V736.531C648.667 738.453 648.464 740.203 648.058 741.781C647.667 743.359 647.066 744.727 646.253 745.883C645.441 747.023 644.417 747.906 643.183 748.531C641.948 749.156 640.495 749.469 638.823 749.469C637.277 749.469 635.948 749.148 634.839 748.508C633.73 747.852 632.8 746.945 632.05 745.789C631.3 744.633 630.691 743.281 630.222 741.734C629.769 740.188 629.417 738.523 629.167 736.742V735.898C629.417 734.117 629.769 732.453 630.222 730.906C630.691 729.359 631.3 728.008 632.05 726.852C632.8 725.695 633.722 724.797 634.816 724.156C635.925 723.5 637.245 723.172 638.777 723.172C640.464 723.172 641.925 723.492 643.159 724.133C644.409 724.773 645.441 725.672 646.253 726.828C647.066 727.969 647.667 729.328 648.058 730.906C648.464 732.469 648.667 734.18 648.667 736.039ZM641.355 736.531V736.039C641.355 735.07 641.284 734.156 641.144 733.297C641.019 732.438 640.792 731.68 640.464 731.023C640.152 730.352 639.706 729.828 639.128 729.453C638.566 729.062 637.839 728.867 636.948 728.867C636.073 728.867 635.331 729.016 634.722 729.312C634.113 729.609 633.62 730.031 633.245 730.578C632.87 731.109 632.597 731.758 632.425 732.523C632.253 733.289 632.159 734.141 632.144 735.078V737.562C632.159 738.812 632.323 739.906 632.636 740.844C632.948 741.781 633.456 742.508 634.159 743.023C634.863 743.523 635.808 743.773 636.995 743.773C637.902 743.773 638.636 743.602 639.198 743.258C639.777 742.898 640.214 742.398 640.511 741.758C640.823 741.117 641.042 740.352 641.167 739.461C641.292 738.57 641.355 737.594 641.355 736.531ZM653.903 736.578V736.086C653.903 734.227 654.169 732.516 654.7 730.953C655.231 729.375 656.012 728.008 657.044 726.852C658.075 725.695 659.341 724.797 660.841 724.156C662.341 723.5 664.059 723.172 665.997 723.172C667.966 723.172 669.7 723.5 671.2 724.156C672.716 724.797 673.989 725.695 675.02 726.852C676.052 728.008 676.833 729.375 677.364 730.953C677.895 732.516 678.161 734.227 678.161 736.086V736.578C678.161 738.422 677.895 740.133 677.364 741.711C676.833 743.273 676.052 744.641 675.02 745.812C673.989 746.969 672.723 747.867 671.223 748.508C669.723 749.148 667.997 749.469 666.044 749.469C664.106 749.469 662.38 749.148 660.864 748.508C659.348 747.867 658.075 746.969 657.044 745.812C656.012 744.641 655.231 743.273 654.7 741.711C654.169 740.133 653.903 738.422 653.903 736.578ZM661.239 736.086V736.578C661.239 737.578 661.317 738.516 661.473 739.391C661.645 740.266 661.919 741.031 662.294 741.688C662.669 742.344 663.161 742.859 663.77 743.234C664.395 743.594 665.153 743.773 666.044 743.773C666.934 743.773 667.684 743.594 668.294 743.234C668.903 742.859 669.395 742.344 669.77 741.688C670.145 741.031 670.411 740.266 670.567 739.391C670.739 738.516 670.825 737.578 670.825 736.578V736.086C670.825 735.102 670.739 734.18 670.567 733.32C670.411 732.445 670.145 731.672 669.77 731C669.395 730.328 668.895 729.805 668.27 729.43C667.661 729.055 666.903 728.867 665.997 728.867C665.122 728.867 664.38 729.055 663.77 729.43C663.161 729.805 662.669 730.328 662.294 731C661.919 731.672 661.645 732.445 661.473 733.32C661.317 734.18 661.239 735.102 661.239 736.086ZM683.35 736.578V736.086C683.35 734.227 683.616 732.516 684.147 730.953C684.678 729.375 685.459 728.008 686.491 726.852C687.522 725.695 688.788 724.797 690.288 724.156C691.788 723.5 693.506 723.172 695.444 723.172C697.413 723.172 699.147 723.5 700.647 724.156C702.163 724.797 703.436 725.695 704.467 726.852C705.498 728.008 706.28 729.375 706.811 730.953C707.342 732.516 707.608 734.227 707.608 736.086V736.578C707.608 738.422 707.342 740.133 706.811 741.711C706.28 743.273 705.498 744.641 704.467 745.812C703.436 746.969 702.17 747.867 700.67 748.508C699.17 749.148 697.444 749.469 695.491 749.469C693.553 749.469 691.827 749.148 690.311 748.508C688.795 747.867 687.522 746.969 686.491 745.812C685.459 744.641 684.678 743.273 684.147 741.711C683.616 740.133 683.35 738.422 683.35 736.578ZM690.686 736.086V736.578C690.686 737.578 690.764 738.516 690.92 739.391C691.092 740.266 691.366 741.031 691.741 741.688C692.116 742.344 692.608 742.859 693.217 743.234C693.842 743.594 694.6 743.773 695.491 743.773C696.381 743.773 697.131 743.594 697.741 743.234C698.35 742.859 698.842 742.344 699.217 741.688C699.592 741.031 699.858 740.266 700.014 739.391C700.186 738.516 700.272 737.578 700.272 736.578V736.086C700.272 735.102 700.186 734.18 700.014 733.32C699.858 732.445 699.592 731.672 699.217 731C698.842 730.328 698.342 729.805 697.717 729.43C697.108 729.055 696.35 728.867 695.444 728.867C694.569 728.867 693.827 729.055 693.217 729.43C692.608 729.805 692.116 730.328 691.741 731C691.366 731.672 691.092 732.445 690.92 733.32C690.764 734.18 690.686 735.102 690.686 736.086ZM726.742 723.641V728.773H711.695V723.641H726.742ZM715.141 717.359H722.477V741.055C722.477 741.758 722.562 742.297 722.734 742.672C722.906 743.047 723.188 743.312 723.578 743.469C723.969 743.609 724.469 743.68 725.078 743.68C725.516 743.68 725.891 743.664 726.203 743.633C726.516 743.602 726.805 743.562 727.07 743.516V748.812C726.445 749.016 725.781 749.172 725.078 749.281C724.375 749.406 723.609 749.469 722.781 749.469C721.203 749.469 719.836 749.211 718.68 748.695C717.539 748.18 716.664 747.367 716.055 746.258C715.445 745.133 715.141 743.672 715.141 741.875V717.359Z" fill="white"/>
<circle cx="387.001" cy="210.246" r="191.245" transform="rotate(30 387.001 210.246)" fill="#B4A6E6"/>
<circle cx="387.001" cy="210.246" r="189.745" transform="rotate(30 387.001 210.246)" stroke="#6347D9" stroke-opacity="0.6" stroke-width="3"/>
<path d="M360.585 215.585H366.079C365.903 217.68 365.317 219.547 364.321 221.188C363.325 222.814 361.926 224.096 360.124 225.033C358.322 225.971 356.132 226.439 353.554 226.439C351.577 226.439 349.797 226.088 348.215 225.385C346.633 224.667 345.278 223.656 344.15 222.353C343.022 221.034 342.158 219.445 341.557 217.584C340.971 215.724 340.678 213.644 340.678 211.344V208.686C340.678 206.386 340.978 204.306 341.579 202.445C342.194 200.585 343.073 198.996 344.216 197.677C345.358 196.344 346.728 195.326 348.325 194.623C349.936 193.92 351.745 193.568 353.752 193.568C356.301 193.568 358.454 194.037 360.212 194.975C361.97 195.912 363.332 197.208 364.299 198.864C365.28 200.519 365.881 202.416 366.1 204.555H360.607C360.461 203.178 360.139 201.999 359.641 201.017C359.157 200.036 358.439 199.289 357.487 198.776C356.535 198.249 355.29 197.985 353.752 197.985C352.492 197.985 351.393 198.219 350.456 198.688C349.518 199.157 348.735 199.845 348.105 200.753C347.475 201.662 346.999 202.782 346.677 204.115C346.369 205.434 346.215 206.942 346.215 208.642V211.344C346.215 212.956 346.354 214.42 346.633 215.739C346.926 217.042 347.365 218.163 347.951 219.101C348.552 220.038 349.313 220.763 350.236 221.276C351.159 221.789 352.265 222.045 353.554 222.045C355.121 222.045 356.389 221.796 357.355 221.298C358.337 220.8 359.077 220.075 359.575 219.123C360.087 218.156 360.424 216.977 360.585 215.585ZM370.9 214.376V213.871C370.9 212.157 371.149 210.568 371.647 209.103C372.145 207.624 372.863 206.342 373.801 205.258C374.753 204.159 375.91 203.31 377.272 202.709C378.649 202.094 380.202 201.786 381.93 201.786C383.674 201.786 385.226 202.094 386.589 202.709C387.966 203.31 389.13 204.159 390.082 205.258C391.034 206.342 391.76 207.624 392.258 209.103C392.756 210.568 393.005 212.157 393.005 213.871V214.376C393.005 216.09 392.756 217.68 392.258 219.145C391.76 220.609 391.034 221.891 390.082 222.99C389.13 224.074 387.973 224.923 386.611 225.539C385.248 226.139 383.703 226.439 381.974 226.439C380.231 226.439 378.671 226.139 377.294 225.539C375.932 224.923 374.775 224.074 373.823 222.99C372.87 221.891 372.145 220.609 371.647 219.145C371.149 217.68 370.9 216.09 370.9 214.376ZM376.196 213.871V214.376C376.196 215.446 376.305 216.457 376.525 217.409C376.745 218.361 377.089 219.196 377.558 219.914C378.027 220.631 378.627 221.195 379.36 221.605C380.092 222.016 380.964 222.221 381.974 222.221C382.956 222.221 383.805 222.016 384.523 221.605C385.256 221.195 385.856 220.631 386.325 219.914C386.794 219.196 387.138 218.361 387.358 217.409C387.592 216.457 387.709 215.446 387.709 214.376V213.871C387.709 212.816 387.592 211.82 387.358 210.883C387.138 209.931 386.786 209.088 386.303 208.356C385.834 207.624 385.234 207.052 384.501 206.642C383.783 206.217 382.927 206.005 381.93 206.005C380.934 206.005 380.07 206.217 379.338 206.642C378.62 207.052 378.027 207.624 377.558 208.356C377.089 209.088 376.745 209.931 376.525 210.883C376.305 211.82 376.196 212.816 376.196 213.871ZM412.131 219.562C412.131 219.035 411.999 218.559 411.735 218.134C411.471 217.694 410.966 217.299 410.219 216.947C409.487 216.596 408.403 216.273 406.967 215.98C405.707 215.702 404.55 215.373 403.495 214.992C402.455 214.596 401.562 214.12 400.815 213.563C400.068 213.007 399.489 212.348 399.079 211.586C398.669 210.824 398.464 209.945 398.464 208.949C398.464 207.982 398.676 207.067 399.101 206.203C399.526 205.338 400.133 204.577 400.925 203.917C401.716 203.258 402.675 202.738 403.803 202.357C404.946 201.977 406.22 201.786 407.626 201.786C409.618 201.786 411.325 202.123 412.746 202.797C414.181 203.456 415.28 204.357 416.042 205.5C416.803 206.627 417.184 207.902 417.184 209.323H411.889C411.889 208.693 411.728 208.107 411.405 207.565C411.098 207.008 410.629 206.562 409.999 206.225C409.369 205.873 408.578 205.697 407.626 205.697C406.718 205.697 405.964 205.844 405.363 206.137C404.777 206.415 404.338 206.781 404.045 207.235C403.766 207.689 403.627 208.188 403.627 208.729C403.627 209.125 403.7 209.484 403.847 209.806C404.008 210.114 404.272 210.399 404.638 210.663C405.004 210.912 405.502 211.146 406.132 211.366C406.777 211.586 407.582 211.798 408.549 212.003C410.365 212.384 411.925 212.875 413.229 213.476C414.548 214.062 415.558 214.823 416.261 215.761C416.965 216.684 417.316 217.855 417.316 219.276C417.316 220.331 417.089 221.298 416.635 222.177C416.196 223.041 415.551 223.795 414.701 224.44C413.852 225.07 412.834 225.561 411.647 225.912C410.475 226.264 409.157 226.439 407.692 226.439C405.539 226.439 403.715 226.059 402.221 225.297C400.727 224.521 399.592 223.532 398.815 222.331C398.053 221.115 397.673 219.855 397.673 218.551H402.792C402.851 219.533 403.122 220.316 403.605 220.902C404.103 221.474 404.718 221.891 405.451 222.155C406.198 222.404 406.967 222.528 407.758 222.528C408.71 222.528 409.508 222.404 410.153 222.155C410.798 221.891 411.288 221.54 411.625 221.1C411.962 220.646 412.131 220.133 412.131 219.562ZM434.201 202.226V206.093H420.797V202.226H434.201ZM424.665 196.403H429.96V219.43C429.96 220.163 430.063 220.727 430.268 221.122C430.487 221.503 430.788 221.759 431.169 221.891C431.549 222.023 431.996 222.089 432.509 222.089C432.875 222.089 433.227 222.067 433.564 222.023C433.9 221.979 434.171 221.935 434.377 221.891L434.399 225.934C433.959 226.066 433.446 226.183 432.86 226.286C432.289 226.388 431.63 226.439 430.883 226.439C429.667 226.439 428.59 226.227 427.653 225.802C426.715 225.363 425.983 224.652 425.456 223.671C424.928 222.689 424.665 221.386 424.665 219.76V196.403Z" fill="white"/>
<defs>
<filter id="filter0_d_858_334" x="718.986" y="952.986" width="374.246" height="374.246" filterUnits="userSpaceOnUse" color-interpolation-filters="sRGB">
<feFlood flood-opacity="0" result="BackgroundImageFix"/>
<feColorMatrix in="SourceAlpha" type="matrix" values="0 0 0 0 0 0 0 0 0 0 0 0 0 0 0 0 0 0 127 0" result="hardAlpha"/>
<feOffset dy="4"/>
<feGaussianBlur stdDeviation="2"/>
<feComposite in2="hardAlpha" operator="out"/>
<feColorMatrix type="matrix" values="0 0 0 0 0.388235 0 0 0 0 0.278431 0 0 0 0 0.85098 0 0 0 0.3 0"/>
<feBlend mode="normal" in2="BackgroundImageFix" result="effect1_dropShadow_858_334"/>
<feBlend mode="normal" in="SourceGraphic" in2="effect1_dropShadow_858_334" result="shape"/>
</filter>
<filter id="filter1_d_858_334" x="391.034" y="445.372" width="523.49" height="456.304" filterUnits="userSpaceOnUse" color-interpolation-filters="sRGB">
<feFlood flood-opacity="0" result="BackgroundImageFix"/>
<feColorMatrix in="SourceAlpha" type="matrix" values="0 0 0 0 0 0 0 0 0 0 0 0 0 0 0 0 0 0 127 0" result="hardAlpha"/>
<feOffset dx="8" dy="8"/>
<feGaussianBlur stdDeviation="5.5"/>
<feComposite in2="hardAlpha" operator="out"/>
<feColorMatrix type="matrix" values="0 0 0 0 0.388235 0 0 0 0 0.278431 0 0 0 0 0.85098 0 0 0 0.2 0"/>
<feBlend mode="normal" in2="BackgroundImageFix" result="effect1_dropShadow_858_334"/>
<feBlend mode="normal" in="SourceGraphic" in2="effect1_dropShadow_858_334" result="shape"/>
</filter>
<filter id="filter2_d_858_334" x="420.799" y="471.372" width="463.489" height="404.342" filterUnits="userSpaceOnUse" color-interpolation-filters="sRGB">
<feFlood flood-opacity="0" result="BackgroundImageFix"/>
<feColorMatrix in="SourceAlpha" type="matrix" values="0 0 0 0 0 0 0 0 0 0 0 0 0 0 0 0 0 0 127 0" result="hardAlpha"/>
<feOffset dx="8" dy="8"/>
<feGaussianBlur stdDeviation="5.5"/>
<feComposite in2="hardAlpha" operator="out"/>
<feColorMatrix type="matrix" values="0 0 0 0 0.388235 0 0 0 0 0.278431 0 0 0 0 0.85098 0 0 0 0.2 0"/>
<feBlend mode="normal" in2="BackgroundImageFix" result="effect1_dropShadow_858_334"/>
<feBlend mode="normal" in="SourceGraphic" in2="effect1_dropShadow_858_334" result="shape"/>
</filter>
</defs>
</svg>
