<svg width="216" height="89" viewBox="0 0 216 89" fill="none" xmlns="http://www.w3.org/2000/svg">
<g filter="url(#filter0_b_391_1880)">
<rect width="216" height="89" rx="8" fill="url(#paint0_linear_391_1880)"/>
<rect x="0.5" y="0.5" width="215" height="88" rx="7.5" stroke="url(#paint1_linear_391_1880)"/>
</g>
<path d="M38.8857 58.7949H40.164L43.7827 67.4485L47.4155 58.7949H48.6485L44.274 68.912H43.2631L38.8857 58.7949Z" fill="black"/>
<path d="M58.752 58.7949H66.1054V59.8276H59.8999V63.2573H65.4507V64.29H59.899V67.8057H66.1772V68.8393H58.751L58.752 58.7949Z" fill="black"/>
<path d="M76.585 58.7949H77.6611L84.0698 66.8457V58.7949H85.1885V68.8402H84.273L77.7046 60.6033V68.8402H76.585V58.7949Z" fill="black"/>
<path d="M98.8501 59.8427H95.4355V58.7949H103.429V59.8427H100.013V68.8402H98.8501V59.8427Z" fill="black"/>
<path d="M113.515 64.6368V58.7959H114.663V64.5649C114.663 66.7314 115.825 67.9512 117.772 67.9512C119.647 67.9512 120.839 66.8316 120.839 64.6368V58.7959H121.987V64.5508C121.987 67.4797 120.286 68.9999 117.743 68.9999C115.228 68.9999 113.514 67.4788 113.514 64.6377" fill="black"/>
<path d="M132.8 58.795H137.174C138.233 58.7376 139.272 59.0983 140.067 59.7994C140.323 60.0615 140.524 60.372 140.659 60.7126C140.794 61.0533 140.859 61.4173 140.852 61.7835V61.8128C140.852 63.4766 139.688 64.4526 138.09 64.7417L141.215 68.846H139.806L136.855 64.943H133.948V68.846H132.8V58.795ZM137.073 63.9178C138.599 63.9178 139.688 63.1431 139.688 61.8515V61.8232C139.688 60.5892 138.729 59.8391 137.087 59.8391H133.948V63.915L137.073 63.9178Z" fill="black"/>
<path d="M151.403 58.7949H158.757V59.8276H152.555V63.2573H158.107V64.29H152.555V67.8057H158.833V68.8393H151.407L151.403 58.7949Z" fill="black"/>
<path d="M168.567 67.377L169.279 66.5446C169.737 67.0004 170.282 67.3604 170.881 67.6037C171.479 67.8471 172.121 67.9688 172.767 67.9619C174.133 67.9619 175.035 67.2448 175.035 66.2536V66.2253C175.035 65.2927 174.526 64.7618 172.389 64.3177C170.049 63.8151 168.974 63.0687 168.974 61.419V61.3906C168.974 59.8118 170.383 58.6507 172.316 58.6507C173.619 58.6129 174.89 59.0516 175.892 59.8846L175.224 60.7604C174.407 60.0572 173.366 59.67 172.288 59.6692C170.965 59.6692 170.122 60.3872 170.122 61.2905V61.3198C170.122 62.2646 170.645 62.7975 172.883 63.2718C175.151 63.7593 176.197 64.5775 176.197 66.1128V66.1421C176.197 67.8636 174.744 68.9832 172.723 68.9832C171.182 69.0022 169.693 68.427 168.565 67.377" fill="black"/>
<path d="M38.3165 44.7274L40.175 41.395C42.153 43.0385 44.6528 43.9217 47.2243 43.8856C50.4858 43.8856 52.3802 42.7631 52.3802 40.7677C52.3802 38.6636 50.2071 37.7509 46.9437 36.8391L45.4707 36.4187C41.1916 35.2613 38 33.4727 38 29.2286C38 24.4932 41.8228 21.3375 47.6098 21.3375C50.7911 21.2762 53.8933 22.3312 56.3776 24.3193L54.1677 27.7566C52.3407 26.2315 50.0282 25.4104 47.6485 25.4418C44.9085 25.4418 43.1237 26.6001 43.1237 28.4236C43.1237 30.4928 45.1929 31.2288 47.7534 31.9657L49.265 32.3871C53.2635 33.4746 57.5076 35.6486 57.5076 40.3142C57.5076 44.9088 53.5092 47.9946 47.5464 47.9946C44.1728 48.0962 40.883 46.9329 38.3231 44.7331" fill="black"/>
<path d="M59.6758 38.1685C59.6758 32.3107 63.7442 28.3831 69.8468 28.3831C72.1926 28.355 74.4791 29.1208 76.3348 30.5561L73.6355 33.7827C72.6085 32.8857 71.2806 32.4098 69.9176 32.4505C66.761 32.4505 64.6219 34.7294 64.6219 38.1666C64.6219 41.6039 66.726 43.8837 69.9535 43.8837C70.7454 43.9233 71.5367 43.7936 72.2746 43.5033C73.0125 43.2129 73.6799 42.7687 74.2326 42.2001L76.9329 45.3567C75.9678 46.2487 74.8355 46.9405 73.6013 47.392C72.3671 47.8435 71.0557 48.0457 69.7428 47.9871C63.7102 47.9871 59.6767 44.0585 59.6767 38.1666" fill="black"/>
<path d="M91.5915 28.3833L91.2759 32.7672C87.3483 32.7672 84.7567 34.6569 84.7567 37.5027V47.6387H79.9863V28.7338H84.581L84.6508 31.2593C86.1626 29.3999 88.5445 28.3833 91.5953 28.3833" fill="black"/>
<path d="M94.5691 22.8428C94.5558 22.4661 94.6201 22.0907 94.7581 21.74C94.8962 21.3893 95.105 21.0707 95.3715 20.8042C95.638 20.5377 95.9566 20.3289 96.3073 20.1908C96.658 20.0528 97.0334 19.9884 97.4101 20.0017C97.7851 19.9889 98.1586 20.0539 98.5072 20.1926C98.8558 20.3313 99.1718 20.5408 99.4354 20.8077C99.699 21.0746 99.9046 21.3932 100.039 21.7435C100.173 22.0937 100.234 22.4681 100.216 22.8428C100.233 23.2157 100.172 23.588 100.037 23.936C99.9014 24.284 99.6953 24.6 99.4314 24.864C99.1674 25.128 98.8514 25.3341 98.5034 25.4692C98.1554 25.6043 97.7831 25.6655 97.4101 25.6489C97.0354 25.6662 96.6612 25.6057 96.311 25.4713C95.9608 25.3369 95.6422 25.1314 95.3753 24.8678C95.1084 24.6042 94.899 24.2882 94.7602 23.9397C94.6215 23.5912 94.5564 23.2177 94.5691 22.8428ZM95.0254 28.7347H99.7958V47.6386H95.0254V28.7347Z" fill="black"/>
<path d="M124.732 38.2744C124.732 44.0954 120.769 47.989 115.683 47.989C114.44 48.0519 113.201 47.7909 112.088 47.2314C110.975 46.672 110.027 45.8333 109.335 44.7974L109.23 47.6385H104.636V20.2822H109.405V31.4708C110.103 30.4647 111.045 29.6533 112.144 29.1132C113.243 28.573 114.461 28.3221 115.683 28.3841C120.769 28.3841 124.732 32.3523 124.732 38.2753V38.2744ZM119.787 38.2045C119.787 34.7672 117.682 32.4534 114.596 32.4534C111.478 32.4534 109.405 34.7682 109.405 38.1695C109.405 41.6068 111.474 43.8866 114.596 43.8866C117.682 43.8866 119.787 41.6068 119.787 38.2045Z" fill="black"/>
<path d="M147.177 38.2744C147.177 44.0954 143.214 47.989 138.129 47.989C136.885 48.0519 135.646 47.7909 134.533 47.2314C133.421 46.672 132.472 45.8333 131.781 44.7974L131.676 47.6385H127.081V20.2822H131.85V31.4708C132.548 30.4647 133.491 29.6533 134.589 29.1132C135.688 28.573 136.906 28.3221 138.129 28.3841C143.214 28.3841 147.177 32.3523 147.177 38.2753V38.2744ZM142.232 38.2045C142.232 34.7672 140.128 32.4534 137.041 32.4534C133.923 32.4534 131.85 34.7682 131.85 38.1695C131.85 41.6068 133.92 43.8866 137.041 43.8866C140.128 43.8866 142.232 41.6068 142.232 38.2045Z" fill="black"/>
<path d="M155.035 20.2812H150.265V47.6375H155.035V20.2812Z" fill="black"/>
<path d="M176.883 39.8873H163.204C163.555 42.5526 164.957 44.2335 167.729 44.2335C168.621 44.2354 169.501 44.0342 170.303 43.6453C171.105 43.2563 171.808 42.6897 172.359 41.9886L176.043 43.847C175.122 45.1671 173.885 46.2368 172.446 46.9593C171.008 47.6818 169.411 48.0344 167.802 47.9853C162.015 47.9853 158.157 44.1276 158.157 38.3057C158.157 32.3439 161.91 28.3804 167.591 28.3804C173.237 28.3804 177.026 32.1681 177.026 37.8852C177.018 38.5538 176.971 39.2213 176.886 39.8845L176.883 39.8873ZM163.207 36.6579H172.01C171.66 33.7819 170.152 32.1332 167.591 32.1332C165.066 32.1332 163.593 33.7819 163.207 36.6579Z" fill="black"/>
<defs>
<filter id="filter0_b_391_1880" x="-8" y="-8" width="232" height="105" filterUnits="userSpaceOnUse" color-interpolation-filters="sRGB">
<feFlood flood-opacity="0" result="BackgroundImageFix"/>
<feGaussianBlur in="BackgroundImageFix" stdDeviation="4"/>
<feComposite in2="SourceAlpha" operator="in" result="effect1_backgroundBlur_391_1880"/>
<feBlend mode="normal" in="SourceGraphic" in2="effect1_backgroundBlur_391_1880" result="shape"/>
</filter>
<linearGradient id="paint0_linear_391_1880" x1="108" y1="0" x2="108" y2="89" gradientUnits="userSpaceOnUse">
<stop stop-color="#D0CFD4" stop-opacity="0.9"/>
<stop offset="1" stop-color="#D0CFD4" stop-opacity="0.7"/>
</linearGradient>
<linearGradient id="paint1_linear_391_1880" x1="108" y1="0" x2="108" y2="89" gradientUnits="userSpaceOnUse">
<stop stop-color="white"/>
<stop offset="1" stop-color="#453F54"/>
</linearGradient>
</defs>
</svg>
