<svg width="30" height="30" viewBox="0 0 30 30" fill="none" xmlns="http://www.w3.org/2000/svg">
<path d="M6.31579 18.9474C6.31579 20.6913 4.90175 22.1053 3.15789 22.1053C1.41403 22.1053 0 20.6913 0 18.9474C0 17.2036 1.41403 15.7896 3.15789 15.7896H6.31579V18.9474Z" fill="#E01E5A"/>
<path d="M7.89453 18.9474C7.89453 17.2036 9.30857 15.7896 11.0524 15.7896C12.7963 15.7896 14.2103 17.2036 14.2103 18.9474V26.8422C14.2103 28.586 12.7963 30.0001 11.0524 30.0001C9.30857 30.0001 7.89453 28.586 7.89453 26.8422V18.9474Z" fill="#E01E5A"/>
<path d="M11.0524 6.31579C9.30857 6.31579 7.89453 4.90175 7.89453 3.15789C7.89453 1.41403 9.30857 0 11.0524 0C12.7963 0 14.2103 1.41403 14.2103 3.15789V6.31579H11.0524Z" fill="#36C5F0"/>
<path d="M11.0526 7.89453C12.7965 7.89453 14.2105 9.30857 14.2105 11.0524C14.2105 12.7963 12.7965 14.2103 11.0526 14.2103H3.15789C1.41403 14.2103 0 12.7963 0 11.0524C0 9.30857 1.41403 7.89453 3.15789 7.89453H11.0526Z" fill="#36C5F0"/>
<path d="M23.6841 11.0524C23.6841 9.30857 25.0981 7.89453 26.842 7.89453C28.5858 7.89453 29.9999 9.30857 29.9999 11.0524C29.9999 12.7963 28.5858 14.2103 26.842 14.2103H23.6841V11.0524Z" fill="#2EB67D"/>
<path d="M22.1053 11.0526C22.1053 12.7965 20.6913 14.2105 18.9474 14.2105C17.2036 14.2105 15.7896 12.7965 15.7896 11.0526V3.15789C15.7896 1.41403 17.2036 0 18.9474 0C20.6913 0 22.1053 1.41403 22.1053 3.15789V11.0526Z" fill="#2EB67D"/>
<path d="M18.9474 23.6841C20.6913 23.6841 22.1053 25.0981 22.1053 26.842C22.1053 28.5858 20.6913 29.9999 18.9474 29.9999C17.2036 29.9999 15.7896 28.5858 15.7896 26.842V23.6841H18.9474Z" fill="#ECB22E"/>
<path d="M18.9474 22.1053C17.2036 22.1053 15.7896 20.6913 15.7896 18.9474C15.7896 17.2036 17.2036 15.7896 18.9474 15.7896H26.8422C28.586 15.7896 30.0001 17.2036 30.0001 18.9474C30.0001 20.6913 28.586 22.1053 26.8422 22.1053H18.9474Z" fill="#ECB22E"/>
</svg>
