<svg width="338" height="76" viewBox="0 0 338 76" fill="none" xmlns="http://www.w3.org/2000/svg">
<g filter="url(#filter0_b_391_1813)">
<rect width="338" height="76" rx="8" fill="url(#paint0_linear_391_1813)"/>
<rect x="0.5" y="0.5" width="337" height="75" rx="7.5" stroke="url(#paint1_linear_391_1813)"/>
</g>
<path d="M81 30.4458H83.7886L86.4762 40.7597H86.5166L89.7296 30.4458H92.2353L95.3876 40.7597H95.428L98.2369 30.4458H100.823L96.6607 44.7639H94.2358L90.9218 33.8635H90.8814L87.5674 44.7639H85.2233L81 30.4458Z" fill="#212121"/>
<path d="M103.642 30.4458H113.119V32.7512H106.188V36.2701H112.755V38.5756H106.188V42.4585H113.483V44.7639H103.642V30.4458Z" fill="#212121"/>
<path d="M124.219 33.5194C123.95 33.1284 123.586 32.8453 123.128 32.67C122.684 32.4813 122.212 32.3869 121.714 32.3869C121.417 32.3869 121.128 32.4206 120.845 32.488C120.575 32.5555 120.326 32.6633 120.097 32.8116C119.881 32.9599 119.706 33.1554 119.572 33.3981C119.437 33.6273 119.37 33.9037 119.37 34.2272C119.37 34.7126 119.538 35.0834 119.875 35.3395C120.211 35.5957 120.629 35.8182 121.128 36.0069C121.626 36.1957 122.172 36.3777 122.764 36.5529C123.357 36.7282 123.903 36.9709 124.401 37.281C124.9 37.5911 125.317 38.0023 125.654 38.5146C125.991 39.0269 126.159 39.7078 126.159 40.5572C126.159 41.3256 126.018 41.9998 125.735 42.5795C125.452 43.1457 125.068 43.6176 124.583 43.9951C124.112 44.3726 123.559 44.6558 122.926 44.8445C122.293 45.0333 121.626 45.1276 120.925 45.1276C120.036 45.1276 119.181 44.9793 118.359 44.6827C117.537 44.3861 116.83 43.8873 116.237 43.1862L118.157 41.3256C118.467 41.7975 118.871 42.1683 119.37 42.4379C119.881 42.6941 120.42 42.8222 120.986 42.8222C121.282 42.8222 121.579 42.7817 121.875 42.7008C122.172 42.6199 122.441 42.4986 122.684 42.3368C122.926 42.175 123.121 41.9728 123.27 41.7301C123.418 41.4739 123.492 41.1841 123.492 40.8605C123.492 40.3347 123.323 39.9302 122.987 39.6471C122.65 39.364 122.232 39.128 121.734 38.9393C121.235 38.7371 120.69 38.5483 120.097 38.373C119.504 38.1978 118.959 37.9618 118.46 37.6652C117.962 37.3551 117.544 36.9507 117.207 36.4518C116.871 35.9395 116.702 35.2586 116.702 34.4093C116.702 33.6677 116.85 33.0273 117.147 32.488C117.457 31.9488 117.854 31.5038 118.339 31.1533C118.837 30.7893 119.403 30.5196 120.036 30.3444C120.67 30.1691 121.316 30.0815 121.976 30.0815C122.731 30.0815 123.458 30.1961 124.159 30.4253C124.873 30.6545 125.513 31.032 126.078 31.5578L124.219 33.5194Z" fill="#212121"/>
<path d="M132.953 32.7512H128.568V30.4458H139.884V32.7512H135.5V44.7639H132.953V32.7512Z" fill="#212121"/>
<path d="M141.242 30.4458H144.031L146.719 40.7597H146.759L149.972 30.4458H152.478L155.63 40.7597H155.67L158.479 30.4458H161.066L156.903 44.7639H154.478L151.164 33.8635H151.124L147.81 44.7639H145.466L141.242 30.4458Z" fill="#212121"/>
<path d="M167.998 30.4458H170.201L176.364 44.7639H173.454L172.12 41.4877H165.917L164.623 44.7639H161.774L167.998 30.4458ZM171.231 39.3036L169.029 33.4793L166.786 39.3036H171.231Z" fill="#212121"/>
<path d="M176.266 30.4458H179.196L183.096 41.2653L187.117 30.4458H189.866L184.086 44.7639H181.884L176.266 30.4458Z" fill="#212121"/>
<path d="M192.614 30.4458H202.091V32.7512H195.16V36.2701H201.727V38.5756H195.16V42.4585H202.455V44.7639H192.614V30.4458Z" fill="#212121"/>
<path d="M223.192 33.8026C222.666 33.2363 222.155 32.8588 221.656 32.67C221.171 32.4813 220.679 32.3869 220.181 32.3869C219.44 32.3869 218.766 32.5217 218.16 32.7914C217.567 33.0476 217.056 33.4116 216.624 33.8835C216.193 34.3418 215.857 34.8811 215.614 35.5013C215.385 36.1215 215.271 36.7889 215.271 37.5034C215.271 38.2719 215.385 38.9797 215.614 39.6269C215.857 40.274 216.193 40.8335 216.624 41.3054C217.056 41.7773 217.567 42.1481 218.16 42.4177C218.766 42.6873 219.44 42.8222 220.181 42.8222C220.76 42.8222 221.319 42.6873 221.858 42.4177C222.411 42.1346 222.922 41.6897 223.394 41.083L225.495 42.5795C224.849 43.4693 224.061 44.1165 223.131 44.5209C222.202 44.9254 221.212 45.1276 220.161 45.1276C219.056 45.1276 218.039 44.9524 217.109 44.6018C216.193 44.2378 215.399 43.7322 214.725 43.0851C214.065 42.4244 213.546 41.6357 213.169 40.7189C212.792 39.8022 212.603 38.7842 212.603 37.6652C212.603 36.5192 212.792 35.4811 213.169 34.5508C213.546 33.6071 214.065 32.8049 214.725 32.1442C215.399 31.4836 216.193 30.978 217.109 30.6275C218.039 30.2635 219.056 30.0815 220.161 30.0815C221.131 30.0815 222.027 30.2567 222.848 30.6073C223.684 30.9443 224.458 31.5241 225.172 32.3465L223.192 33.8026Z" fill="#212121"/>
<path d="M233.044 30.4458H235.247L241.41 44.7639H238.5L237.167 41.4877H230.963L229.67 44.7639H226.82L233.044 30.4458ZM236.278 39.3036L234.075 33.4793L231.832 39.3036H236.278Z" fill="#212121"/>
<path d="M244.213 30.4458H249.022C249.709 30.4458 250.369 30.5132 251.002 30.648C251.649 30.7828 252.215 31.012 252.7 31.3356C253.185 31.6457 253.569 32.0704 253.851 32.6097C254.148 33.1355 254.296 33.7961 254.296 34.5916C254.296 35.4949 254.141 36.2229 253.831 36.7757C253.521 37.3285 253.104 37.7599 252.578 38.07C252.053 38.3666 251.44 38.5688 250.74 38.6767C250.052 38.7845 249.332 38.8385 248.577 38.8385H246.759V44.7639H244.213V30.4458ZM248.294 36.6543C248.658 36.6543 249.035 36.6409 249.426 36.6139C249.817 36.5869 250.174 36.506 250.497 36.3712C250.834 36.2364 251.103 36.0342 251.305 35.7645C251.521 35.4949 251.629 35.1174 251.629 34.632C251.629 34.1871 251.534 33.8366 251.346 33.5804C251.157 33.3108 250.915 33.1085 250.618 32.9737C250.322 32.8254 249.992 32.731 249.628 32.6906C249.264 32.6501 248.914 32.6299 248.577 32.6299H246.759V36.6543H248.294Z" fill="#212121"/>
<path d="M257.718 30.4458H260.264V44.7639H257.718V30.4458Z" fill="#212121"/>
<path d="M267.545 32.7512H263.16V30.4458H274.476V32.7512H270.091V44.7639H267.545V32.7512Z" fill="#212121"/>
<path d="M280.203 30.4458H282.406L288.569 44.7639H285.659L284.326 41.4877H278.122L276.829 44.7639H273.979L280.203 30.4458ZM283.436 39.3036L281.234 33.4793L278.991 39.3036H283.436Z" fill="#212121"/>
<path d="M291.371 30.4458H293.918V42.4585H300V44.7639H291.371V30.4458Z" fill="#212121"/>
<path d="M40.0522 39.0803C40.0522 28.955 47.225 21.2657 56.7377 21.2657C61.1126 21.2657 63.2491 22.5949 63.2491 22.5949C61.9943 21.7299 58.447 20 54.2959 20C47.0723 20 37 25.6986 37 37.6556C37 49.6126 47.3267 55.006 53.7872 55.006C54.3299 54.989 55.7712 54.7516 55.7712 54.548C50.0737 55.006 40.0522 48.3353 40.0522 39.0803Z" fill="#567BE5"/>
<path d="M56.9415 23.3071C51.5696 23.3071 47.6152 26.326 46.3096 27.8355C50.0231 24.7318 55.0593 24.7318 55.0593 24.7318C62.232 24.7318 68.6417 30.8375 68.6417 38.317C68.5908 42.133 67.4717 43.5577 67.4717 43.5577C67.4717 43.5577 66.7086 36.3835 59.5359 35.5185C59.5359 35.5185 61.2146 37.3502 61.1637 40.7084C61.1637 43.5577 60.5533 44.2191 60.5533 44.2191C60.5533 44.2191 58.3659 34.5518 47.0726 35.315C57.5011 38.317 59.1798 50.8845 59.1798 53.4286C63.9616 48.9002 63.9616 43.0489 63.9616 43.0489C65.4877 45.8473 64.9281 51.4951 64.9281 51.4951C64.9281 51.4951 71.9483 47.3229 71.9483 38.317C71.9483 29.9216 65.2842 23.3071 56.9415 23.3071Z" fill="#567BE5"/>
<defs>
<filter id="filter0_b_391_1813" x="-8" y="-8" width="354" height="92" filterUnits="userSpaceOnUse" color-interpolation-filters="sRGB">
<feFlood flood-opacity="0" result="BackgroundImageFix"/>
<feGaussianBlur in="BackgroundImageFix" stdDeviation="4"/>
<feComposite in2="SourceAlpha" operator="in" result="effect1_backgroundBlur_391_1813"/>
<feBlend mode="normal" in="SourceGraphic" in2="effect1_backgroundBlur_391_1813" result="shape"/>
</filter>
<linearGradient id="paint0_linear_391_1813" x1="169" y1="0" x2="169" y2="76" gradientUnits="userSpaceOnUse">
<stop stop-color="#D0CFD4" stop-opacity="0.9"/>
<stop offset="1" stop-color="#D0CFD4" stop-opacity="0.7"/>
</linearGradient>
<linearGradient id="paint1_linear_391_1813" x1="169" y1="0" x2="169" y2="76" gradientUnits="userSpaceOnUse">
<stop stop-color="white"/>
<stop offset="1" stop-color="#453F54"/>
</linearGradient>
</defs>
</svg>
